G04 #@! TF.FileFunction,Legend,Top*
%FSLAX46Y46*%
G04 Gerber Fmt 4.6, Leading zero omitted, Abs format (unit mm)*
G04 Created by KiCad (PCBNEW 4.0.2-stable) date Tuesday, August 30, 2016 'PMt' 11:58:46 PM*
%MOMM*%
G01*
G04 APERTURE LIST*
%ADD10C,0.100000*%
%ADD11C,0.200000*%
%ADD12C,0.150000*%
%ADD13C,0.152400*%
%ADD14C,0.127000*%
G04 APERTURE END LIST*
D10*
D11*
X88392000Y-95758000D02*
X88392000Y-98298000D01*
X88392000Y-97028000D02*
X88392000Y-95758000D01*
X89408000Y-96520000D02*
X89408000Y-97536000D01*
X88900000Y-96012000D02*
X88900000Y-98044000D01*
X86868000Y-97028000D02*
X88392000Y-97028000D01*
D12*
X67660000Y-135728000D02*
X66960000Y-135728000D01*
X66960000Y-134528000D02*
X67660000Y-134528000D01*
X74514000Y-95662000D02*
X74514000Y-96362000D01*
X73314000Y-96362000D02*
X73314000Y-95662000D01*
X87980000Y-100930000D02*
X87280000Y-100930000D01*
X87280000Y-99730000D02*
X87980000Y-99730000D01*
X74580000Y-117256000D02*
X75280000Y-117256000D01*
X75280000Y-118456000D02*
X74580000Y-118456000D01*
X73248000Y-144618000D02*
X72548000Y-144618000D01*
X72548000Y-143418000D02*
X73248000Y-143418000D01*
X81692000Y-99730000D02*
X82392000Y-99730000D01*
X82392000Y-100930000D02*
X81692000Y-100930000D01*
X71466000Y-95662000D02*
X71466000Y-96362000D01*
X70266000Y-96362000D02*
X70266000Y-95662000D01*
X85944000Y-104552000D02*
X85944000Y-105252000D01*
X84744000Y-105252000D02*
X84744000Y-104552000D01*
X84744000Y-109824000D02*
X84744000Y-109124000D01*
X85944000Y-109124000D02*
X85944000Y-109824000D01*
X72548000Y-105572000D02*
X73248000Y-105572000D01*
X73248000Y-106772000D02*
X72548000Y-106772000D01*
X72548000Y-108112000D02*
X73248000Y-108112000D01*
X73248000Y-109312000D02*
X72548000Y-109312000D01*
X99710800Y-106685600D02*
X99710800Y-107385600D01*
X98510800Y-107385600D02*
X98510800Y-106685600D01*
X124068840Y-117436900D02*
X124868940Y-128435100D01*
X123268740Y-117436900D02*
X124068840Y-128435100D01*
X122468640Y-117436900D02*
X123268740Y-128435100D01*
X121668540Y-117436900D02*
X122468640Y-128435100D01*
X120868440Y-117436900D02*
X121668540Y-128435100D01*
X120068340Y-117436900D02*
X120868440Y-128435100D01*
X135968740Y-122936000D02*
G75*
G03X135968740Y-122936000I-1000760J0D01*
G01*
X126966980Y-127736600D02*
X138968480Y-127736600D01*
X138968480Y-127736600D02*
X138968480Y-118135400D01*
X138968480Y-118135400D02*
X126966980Y-118135400D01*
X119468900Y-128435100D02*
X126966980Y-128435100D01*
X126966980Y-128435100D02*
X126966980Y-117436900D01*
X126966980Y-117436900D02*
X119468900Y-117436900D01*
X105067100Y-115135660D02*
X105067100Y-130736340D01*
X105067100Y-130736340D02*
X119468900Y-130736340D01*
X119468900Y-130736340D02*
X119468900Y-115135660D01*
X119468900Y-115135660D02*
X105067100Y-115135660D01*
D13*
X124162820Y-100284280D02*
X124162820Y-103278940D01*
X112440720Y-112367060D02*
X112440720Y-100284280D01*
X124162820Y-109372400D02*
X126911100Y-109372400D01*
X126911100Y-103278940D02*
X124162820Y-103278940D01*
X124162820Y-103278940D02*
X124162820Y-109372400D01*
X124162820Y-109372400D02*
X124162820Y-112367060D01*
X126911100Y-109372400D02*
X127419100Y-108864400D01*
X126911100Y-103278940D02*
X127419100Y-103786940D01*
X127419100Y-103786940D02*
X127419100Y-108864400D01*
X126911100Y-103278940D02*
X126911100Y-109372400D01*
X124162820Y-100284280D02*
X119047260Y-100284280D01*
X116888260Y-100284280D02*
X112440720Y-100284280D01*
X112440720Y-112367060D02*
X112443260Y-112367060D01*
X114348260Y-112367060D02*
X124162820Y-112367060D01*
D12*
X71889620Y-98267520D02*
X72890380Y-98267520D01*
X71889620Y-100868480D02*
X72890380Y-100868480D01*
X92113100Y-173598840D02*
X81114900Y-174398940D01*
X92113100Y-172798740D02*
X81114900Y-173598840D01*
X92113100Y-171998640D02*
X81114900Y-172798740D01*
X92113100Y-171198540D02*
X81114900Y-171998640D01*
X92113100Y-170398440D02*
X81114900Y-171198540D01*
X92113100Y-169598340D02*
X81114900Y-170398440D01*
X87614760Y-184497980D02*
G75*
G03X87614760Y-184497980I-1000760J0D01*
G01*
X81813400Y-176496980D02*
X81813400Y-188498480D01*
X81813400Y-188498480D02*
X91414600Y-188498480D01*
X91414600Y-188498480D02*
X91414600Y-176496980D01*
X81114900Y-168998900D02*
X81114900Y-176496980D01*
X81114900Y-176496980D02*
X92113100Y-176496980D01*
X92113100Y-176496980D02*
X92113100Y-168998900D01*
X94414340Y-154597100D02*
X78813660Y-154597100D01*
X78813660Y-154597100D02*
X78813660Y-168998900D01*
X78813660Y-168998900D02*
X94414340Y-168998900D01*
X94414340Y-168998900D02*
X94414340Y-154597100D01*
X117259100Y-173598840D02*
X106260900Y-174398940D01*
X117259100Y-172798740D02*
X106260900Y-173598840D01*
X117259100Y-171998640D02*
X106260900Y-172798740D01*
X117259100Y-171198540D02*
X106260900Y-171998640D01*
X117259100Y-170398440D02*
X106260900Y-171198540D01*
X117259100Y-169598340D02*
X106260900Y-170398440D01*
X112760760Y-184497980D02*
G75*
G03X112760760Y-184497980I-1000760J0D01*
G01*
X106959400Y-176496980D02*
X106959400Y-188498480D01*
X106959400Y-188498480D02*
X116560600Y-188498480D01*
X116560600Y-188498480D02*
X116560600Y-176496980D01*
X106260900Y-168998900D02*
X106260900Y-176496980D01*
X106260900Y-176496980D02*
X117259100Y-176496980D01*
X117259100Y-176496980D02*
X117259100Y-168998900D01*
X119560340Y-154597100D02*
X103959660Y-154597100D01*
X103959660Y-154597100D02*
X103959660Y-168998900D01*
X103959660Y-168998900D02*
X119560340Y-168998900D01*
X119560340Y-168998900D02*
X119560340Y-154597100D01*
X43825160Y-140627100D02*
X43025060Y-129628900D01*
X44625260Y-140627100D02*
X43825160Y-129628900D01*
X45425360Y-140627100D02*
X44625260Y-129628900D01*
X46225460Y-140627100D02*
X45425360Y-129628900D01*
X47025560Y-140627100D02*
X46225460Y-129628900D01*
X47825660Y-140627100D02*
X47025560Y-129628900D01*
X33926780Y-135128000D02*
G75*
G03X33926780Y-135128000I-1000760J0D01*
G01*
X40927020Y-130327400D02*
X28925520Y-130327400D01*
X28925520Y-130327400D02*
X28925520Y-139928600D01*
X28925520Y-139928600D02*
X40927020Y-139928600D01*
X48425100Y-129628900D02*
X40927020Y-129628900D01*
X40927020Y-129628900D02*
X40927020Y-140627100D01*
X40927020Y-140627100D02*
X48425100Y-140627100D01*
X62826900Y-142928340D02*
X62826900Y-127327660D01*
X62826900Y-127327660D02*
X48425100Y-127327660D01*
X48425100Y-127327660D02*
X48425100Y-142928340D01*
X48425100Y-142928340D02*
X62826900Y-142928340D01*
X84328000Y-95758000D02*
X86868000Y-95758000D01*
X81508000Y-95478000D02*
X83058000Y-95478000D01*
X84328000Y-95758000D02*
X84328000Y-98298000D01*
X83058000Y-98578000D02*
X81508000Y-98578000D01*
X81508000Y-98578000D02*
X81508000Y-95478000D01*
X84328000Y-98298000D02*
X86868000Y-98298000D01*
X86868000Y-98298000D02*
X86868000Y-95758000D01*
X124068840Y-136486900D02*
X124868940Y-147485100D01*
X123268740Y-136486900D02*
X124068840Y-147485100D01*
X122468640Y-136486900D02*
X123268740Y-147485100D01*
X121668540Y-136486900D02*
X122468640Y-147485100D01*
X120868440Y-136486900D02*
X121668540Y-147485100D01*
X120068340Y-136486900D02*
X120868440Y-147485100D01*
X135968740Y-141986000D02*
G75*
G03X135968740Y-141986000I-1000760J0D01*
G01*
X126966980Y-146786600D02*
X138968480Y-146786600D01*
X138968480Y-146786600D02*
X138968480Y-137185400D01*
X138968480Y-137185400D02*
X126966980Y-137185400D01*
X119468900Y-147485100D02*
X126966980Y-147485100D01*
X126966980Y-147485100D02*
X126966980Y-136486900D01*
X126966980Y-136486900D02*
X119468900Y-136486900D01*
X105067100Y-134185660D02*
X105067100Y-149786340D01*
X105067100Y-149786340D02*
X119468900Y-149786340D01*
X119468900Y-149786340D02*
X119468900Y-134185660D01*
X119468900Y-134185660D02*
X105067100Y-134185660D01*
X69001000Y-138184000D02*
X69001000Y-139184000D01*
X67651000Y-139184000D02*
X67651000Y-138184000D01*
X69001000Y-131072000D02*
X69001000Y-132072000D01*
X67651000Y-132072000D02*
X67651000Y-131072000D01*
X67477000Y-106180000D02*
X67477000Y-107180000D01*
X66127000Y-107180000D02*
X66127000Y-106180000D01*
X73398000Y-142407000D02*
X72398000Y-142407000D01*
X72398000Y-141057000D02*
X73398000Y-141057000D01*
X66127000Y-101084000D02*
X66127000Y-100084000D01*
X67477000Y-100084000D02*
X67477000Y-101084000D01*
X75430000Y-115991000D02*
X74430000Y-115991000D01*
X74430000Y-114641000D02*
X75430000Y-114641000D01*
X95036000Y-99830000D02*
X95036000Y-100830000D01*
X93686000Y-100830000D02*
X93686000Y-99830000D01*
X96149800Y-107535600D02*
X96149800Y-106535600D01*
X97499800Y-106535600D02*
X97499800Y-107535600D01*
X92441400Y-113834800D02*
X92441400Y-112834800D01*
X93791400Y-112834800D02*
X93791400Y-113834800D01*
X43825160Y-109131100D02*
X43025060Y-98132900D01*
X44625260Y-109131100D02*
X43825160Y-98132900D01*
X45425360Y-109131100D02*
X44625260Y-98132900D01*
X46225460Y-109131100D02*
X45425360Y-98132900D01*
X47025560Y-109131100D02*
X46225460Y-98132900D01*
X47825660Y-109131100D02*
X47025560Y-98132900D01*
X33926780Y-103632000D02*
G75*
G03X33926780Y-103632000I-1000760J0D01*
G01*
X40927020Y-98831400D02*
X28925520Y-98831400D01*
X28925520Y-98831400D02*
X28925520Y-108432600D01*
X28925520Y-108432600D02*
X40927020Y-108432600D01*
X48425100Y-98132900D02*
X40927020Y-98132900D01*
X40927020Y-98132900D02*
X40927020Y-109131100D01*
X40927020Y-109131100D02*
X48425100Y-109131100D01*
X62826900Y-111432340D02*
X62826900Y-95831660D01*
X62826900Y-95831660D02*
X48425100Y-95831660D01*
X48425100Y-95831660D02*
X48425100Y-111432340D01*
X48425100Y-111432340D02*
X62826900Y-111432340D01*
X74676000Y-130048000D02*
X79502000Y-130048000D01*
X79502000Y-130048000D02*
X79502000Y-140208000D01*
X79502000Y-140208000D02*
X74676000Y-140208000D01*
X74676000Y-140208000D02*
X74676000Y-130048000D01*
X76454000Y-140208000D02*
X76454000Y-139573000D01*
X76454000Y-139573000D02*
X77724000Y-139573000D01*
X77724000Y-139573000D02*
X77724000Y-140208000D01*
X78486000Y-113538000D02*
X78486000Y-112776000D01*
X78486000Y-112776000D02*
X80010000Y-112776000D01*
X80010000Y-112776000D02*
X80010000Y-113538000D01*
X76962000Y-102362000D02*
X81534000Y-102362000D01*
X81534000Y-102362000D02*
X81534000Y-113538000D01*
X81534000Y-113538000D02*
X76962000Y-113538000D01*
X76962000Y-113538000D02*
X76962000Y-102362000D01*
X94996000Y-109220000D02*
X89916000Y-109220000D01*
X89916000Y-109220000D02*
X89916000Y-104648000D01*
X89916000Y-104648000D02*
X94996000Y-104648000D01*
X94996000Y-104648000D02*
X94996000Y-109220000D01*
X94996000Y-107696000D02*
X94488000Y-107696000D01*
X94488000Y-107696000D02*
X94488000Y-106426000D01*
X94488000Y-106426000D02*
X94996000Y-106426000D01*
X70191334Y-135485143D02*
X70143715Y-135532762D01*
X70000858Y-135580381D01*
X69905620Y-135580381D01*
X69762762Y-135532762D01*
X69667524Y-135437524D01*
X69619905Y-135342286D01*
X69572286Y-135151810D01*
X69572286Y-135008952D01*
X69619905Y-134818476D01*
X69667524Y-134723238D01*
X69762762Y-134628000D01*
X69905620Y-134580381D01*
X70000858Y-134580381D01*
X70143715Y-134628000D01*
X70191334Y-134675619D01*
X71143715Y-135580381D02*
X70572286Y-135580381D01*
X70858000Y-135580381D02*
X70858000Y-134580381D01*
X70762762Y-134723238D01*
X70667524Y-134818476D01*
X70572286Y-134866095D01*
X76171143Y-96178666D02*
X76218762Y-96226285D01*
X76266381Y-96369142D01*
X76266381Y-96464380D01*
X76218762Y-96607238D01*
X76123524Y-96702476D01*
X76028286Y-96750095D01*
X75837810Y-96797714D01*
X75694952Y-96797714D01*
X75504476Y-96750095D01*
X75409238Y-96702476D01*
X75314000Y-96607238D01*
X75266381Y-96464380D01*
X75266381Y-96369142D01*
X75314000Y-96226285D01*
X75361619Y-96178666D01*
X75361619Y-95797714D02*
X75314000Y-95750095D01*
X75266381Y-95654857D01*
X75266381Y-95416761D01*
X75314000Y-95321523D01*
X75361619Y-95273904D01*
X75456857Y-95226285D01*
X75552095Y-95226285D01*
X75694952Y-95273904D01*
X76266381Y-95845333D01*
X76266381Y-95226285D01*
X87463334Y-102465143D02*
X87415715Y-102512762D01*
X87272858Y-102560381D01*
X87177620Y-102560381D01*
X87034762Y-102512762D01*
X86939524Y-102417524D01*
X86891905Y-102322286D01*
X86844286Y-102131810D01*
X86844286Y-101988952D01*
X86891905Y-101798476D01*
X86939524Y-101703238D01*
X87034762Y-101608000D01*
X87177620Y-101560381D01*
X87272858Y-101560381D01*
X87415715Y-101608000D01*
X87463334Y-101655619D01*
X87796667Y-101560381D02*
X88415715Y-101560381D01*
X88082381Y-101941333D01*
X88225239Y-101941333D01*
X88320477Y-101988952D01*
X88368096Y-102036571D01*
X88415715Y-102131810D01*
X88415715Y-102369905D01*
X88368096Y-102465143D01*
X88320477Y-102512762D01*
X88225239Y-102560381D01*
X87939524Y-102560381D01*
X87844286Y-102512762D01*
X87796667Y-102465143D01*
X71461334Y-118213143D02*
X71413715Y-118260762D01*
X71270858Y-118308381D01*
X71175620Y-118308381D01*
X71032762Y-118260762D01*
X70937524Y-118165524D01*
X70889905Y-118070286D01*
X70842286Y-117879810D01*
X70842286Y-117736952D01*
X70889905Y-117546476D01*
X70937524Y-117451238D01*
X71032762Y-117356000D01*
X71175620Y-117308381D01*
X71270858Y-117308381D01*
X71413715Y-117356000D01*
X71461334Y-117403619D01*
X72318477Y-117641714D02*
X72318477Y-118308381D01*
X72080381Y-117260762D02*
X71842286Y-117975048D01*
X72461334Y-117975048D01*
X69683334Y-144375143D02*
X69635715Y-144422762D01*
X69492858Y-144470381D01*
X69397620Y-144470381D01*
X69254762Y-144422762D01*
X69159524Y-144327524D01*
X69111905Y-144232286D01*
X69064286Y-144041810D01*
X69064286Y-143898952D01*
X69111905Y-143708476D01*
X69159524Y-143613238D01*
X69254762Y-143518000D01*
X69397620Y-143470381D01*
X69492858Y-143470381D01*
X69635715Y-143518000D01*
X69683334Y-143565619D01*
X70588096Y-143470381D02*
X70111905Y-143470381D01*
X70064286Y-143946571D01*
X70111905Y-143898952D01*
X70207143Y-143851333D01*
X70445239Y-143851333D01*
X70540477Y-143898952D01*
X70588096Y-143946571D01*
X70635715Y-144041810D01*
X70635715Y-144279905D01*
X70588096Y-144375143D01*
X70540477Y-144422762D01*
X70445239Y-144470381D01*
X70207143Y-144470381D01*
X70111905Y-144422762D01*
X70064286Y-144375143D01*
X78573334Y-100687143D02*
X78525715Y-100734762D01*
X78382858Y-100782381D01*
X78287620Y-100782381D01*
X78144762Y-100734762D01*
X78049524Y-100639524D01*
X78001905Y-100544286D01*
X77954286Y-100353810D01*
X77954286Y-100210952D01*
X78001905Y-100020476D01*
X78049524Y-99925238D01*
X78144762Y-99830000D01*
X78287620Y-99782381D01*
X78382858Y-99782381D01*
X78525715Y-99830000D01*
X78573334Y-99877619D01*
X79430477Y-99782381D02*
X79240000Y-99782381D01*
X79144762Y-99830000D01*
X79097143Y-99877619D01*
X79001905Y-100020476D01*
X78954286Y-100210952D01*
X78954286Y-100591905D01*
X79001905Y-100687143D01*
X79049524Y-100734762D01*
X79144762Y-100782381D01*
X79335239Y-100782381D01*
X79430477Y-100734762D01*
X79478096Y-100687143D01*
X79525715Y-100591905D01*
X79525715Y-100353810D01*
X79478096Y-100258571D01*
X79430477Y-100210952D01*
X79335239Y-100163333D01*
X79144762Y-100163333D01*
X79049524Y-100210952D01*
X79001905Y-100258571D01*
X78954286Y-100353810D01*
X69191143Y-96178666D02*
X69238762Y-96226285D01*
X69286381Y-96369142D01*
X69286381Y-96464380D01*
X69238762Y-96607238D01*
X69143524Y-96702476D01*
X69048286Y-96750095D01*
X68857810Y-96797714D01*
X68714952Y-96797714D01*
X68524476Y-96750095D01*
X68429238Y-96702476D01*
X68334000Y-96607238D01*
X68286381Y-96464380D01*
X68286381Y-96369142D01*
X68334000Y-96226285D01*
X68381619Y-96178666D01*
X68286381Y-95845333D02*
X68286381Y-95178666D01*
X69286381Y-95607238D01*
X87601143Y-105068666D02*
X87648762Y-105116285D01*
X87696381Y-105259142D01*
X87696381Y-105354380D01*
X87648762Y-105497238D01*
X87553524Y-105592476D01*
X87458286Y-105640095D01*
X87267810Y-105687714D01*
X87124952Y-105687714D01*
X86934476Y-105640095D01*
X86839238Y-105592476D01*
X86744000Y-105497238D01*
X86696381Y-105354380D01*
X86696381Y-105259142D01*
X86744000Y-105116285D01*
X86791619Y-105068666D01*
X87124952Y-104497238D02*
X87077333Y-104592476D01*
X87029714Y-104640095D01*
X86934476Y-104687714D01*
X86886857Y-104687714D01*
X86791619Y-104640095D01*
X86744000Y-104592476D01*
X86696381Y-104497238D01*
X86696381Y-104306761D01*
X86744000Y-104211523D01*
X86791619Y-104163904D01*
X86886857Y-104116285D01*
X86934476Y-104116285D01*
X87029714Y-104163904D01*
X87077333Y-104211523D01*
X87124952Y-104306761D01*
X87124952Y-104497238D01*
X87172571Y-104592476D01*
X87220190Y-104640095D01*
X87315429Y-104687714D01*
X87505905Y-104687714D01*
X87601143Y-104640095D01*
X87648762Y-104592476D01*
X87696381Y-104497238D01*
X87696381Y-104306761D01*
X87648762Y-104211523D01*
X87601143Y-104163904D01*
X87505905Y-104116285D01*
X87315429Y-104116285D01*
X87220190Y-104163904D01*
X87172571Y-104211523D01*
X87124952Y-104306761D01*
X87733143Y-109640666D02*
X87780762Y-109688285D01*
X87828381Y-109831142D01*
X87828381Y-109926380D01*
X87780762Y-110069238D01*
X87685524Y-110164476D01*
X87590286Y-110212095D01*
X87399810Y-110259714D01*
X87256952Y-110259714D01*
X87066476Y-110212095D01*
X86971238Y-110164476D01*
X86876000Y-110069238D01*
X86828381Y-109926380D01*
X86828381Y-109831142D01*
X86876000Y-109688285D01*
X86923619Y-109640666D01*
X87828381Y-109164476D02*
X87828381Y-108974000D01*
X87780762Y-108878761D01*
X87733143Y-108831142D01*
X87590286Y-108735904D01*
X87399810Y-108688285D01*
X87018857Y-108688285D01*
X86923619Y-108735904D01*
X86876000Y-108783523D01*
X86828381Y-108878761D01*
X86828381Y-109069238D01*
X86876000Y-109164476D01*
X86923619Y-109212095D01*
X87018857Y-109259714D01*
X87256952Y-109259714D01*
X87352190Y-109212095D01*
X87399810Y-109164476D01*
X87447429Y-109069238D01*
X87447429Y-108878761D01*
X87399810Y-108783523D01*
X87352190Y-108735904D01*
X87256952Y-108688285D01*
X72255143Y-105005143D02*
X72207524Y-105052762D01*
X72064667Y-105100381D01*
X71969429Y-105100381D01*
X71826571Y-105052762D01*
X71731333Y-104957524D01*
X71683714Y-104862286D01*
X71636095Y-104671810D01*
X71636095Y-104528952D01*
X71683714Y-104338476D01*
X71731333Y-104243238D01*
X71826571Y-104148000D01*
X71969429Y-104100381D01*
X72064667Y-104100381D01*
X72207524Y-104148000D01*
X72255143Y-104195619D01*
X73207524Y-105100381D02*
X72636095Y-105100381D01*
X72921809Y-105100381D02*
X72921809Y-104100381D01*
X72826571Y-104243238D01*
X72731333Y-104338476D01*
X72636095Y-104386095D01*
X73826571Y-104100381D02*
X73921810Y-104100381D01*
X74017048Y-104148000D01*
X74064667Y-104195619D01*
X74112286Y-104290857D01*
X74159905Y-104481333D01*
X74159905Y-104719429D01*
X74112286Y-104909905D01*
X74064667Y-105005143D01*
X74017048Y-105052762D01*
X73921810Y-105100381D01*
X73826571Y-105100381D01*
X73731333Y-105052762D01*
X73683714Y-105005143D01*
X73636095Y-104909905D01*
X73588476Y-104719429D01*
X73588476Y-104481333D01*
X73636095Y-104290857D01*
X73683714Y-104195619D01*
X73731333Y-104148000D01*
X73826571Y-104100381D01*
X72255143Y-110847143D02*
X72207524Y-110894762D01*
X72064667Y-110942381D01*
X71969429Y-110942381D01*
X71826571Y-110894762D01*
X71731333Y-110799524D01*
X71683714Y-110704286D01*
X71636095Y-110513810D01*
X71636095Y-110370952D01*
X71683714Y-110180476D01*
X71731333Y-110085238D01*
X71826571Y-109990000D01*
X71969429Y-109942381D01*
X72064667Y-109942381D01*
X72207524Y-109990000D01*
X72255143Y-110037619D01*
X73207524Y-110942381D02*
X72636095Y-110942381D01*
X72921809Y-110942381D02*
X72921809Y-109942381D01*
X72826571Y-110085238D01*
X72731333Y-110180476D01*
X72636095Y-110228095D01*
X74159905Y-110942381D02*
X73588476Y-110942381D01*
X73874190Y-110942381D02*
X73874190Y-109942381D01*
X73778952Y-110085238D01*
X73683714Y-110180476D01*
X73588476Y-110228095D01*
X99467943Y-111158257D02*
X99515562Y-111205876D01*
X99563181Y-111348733D01*
X99563181Y-111443971D01*
X99515562Y-111586829D01*
X99420324Y-111682067D01*
X99325086Y-111729686D01*
X99134610Y-111777305D01*
X98991752Y-111777305D01*
X98801276Y-111729686D01*
X98706038Y-111682067D01*
X98610800Y-111586829D01*
X98563181Y-111443971D01*
X98563181Y-111348733D01*
X98610800Y-111205876D01*
X98658419Y-111158257D01*
X99563181Y-110205876D02*
X99563181Y-110777305D01*
X99563181Y-110491591D02*
X98563181Y-110491591D01*
X98706038Y-110586829D01*
X98801276Y-110682067D01*
X98848895Y-110777305D01*
X98658419Y-109824924D02*
X98610800Y-109777305D01*
X98563181Y-109682067D01*
X98563181Y-109443971D01*
X98610800Y-109348733D01*
X98658419Y-109301114D01*
X98753657Y-109253495D01*
X98848895Y-109253495D01*
X98991752Y-109301114D01*
X99563181Y-109872543D01*
X99563181Y-109253495D01*
X103068381Y-123920190D02*
X102068381Y-123920190D01*
X103068381Y-122920190D02*
X103068381Y-123491619D01*
X103068381Y-123205905D02*
X102068381Y-123205905D01*
X102211238Y-123301143D01*
X102306476Y-123396381D01*
X102354095Y-123491619D01*
D14*
X113101604Y-110430249D02*
X113101604Y-109644059D01*
X113585413Y-110067392D01*
X113585413Y-109885964D01*
X113645890Y-109765011D01*
X113706366Y-109704535D01*
X113827318Y-109644059D01*
X114129699Y-109644059D01*
X114250651Y-109704535D01*
X114311128Y-109765011D01*
X114371604Y-109885964D01*
X114371604Y-110248821D01*
X114311128Y-110369773D01*
X114250651Y-110430249D01*
X114311128Y-109039297D02*
X114371604Y-109039297D01*
X114492556Y-109099773D01*
X114553032Y-109160249D01*
X113101604Y-107890249D02*
X113101604Y-108495011D01*
X113706366Y-108555487D01*
X113645890Y-108495011D01*
X113585413Y-108374059D01*
X113585413Y-108071678D01*
X113645890Y-107950725D01*
X113706366Y-107890249D01*
X113827318Y-107829773D01*
X114129699Y-107829773D01*
X114250651Y-107890249D01*
X114311128Y-107950725D01*
X114371604Y-108071678D01*
X114371604Y-108374059D01*
X114311128Y-108495011D01*
X114250651Y-108555487D01*
X114371604Y-107285487D02*
X113524937Y-107285487D01*
X113645890Y-107285487D02*
X113585413Y-107225011D01*
X113524937Y-107104058D01*
X113524937Y-106922630D01*
X113585413Y-106801678D01*
X113706366Y-106741201D01*
X114371604Y-106741201D01*
X113706366Y-106741201D02*
X113585413Y-106680725D01*
X113524937Y-106559773D01*
X113524937Y-106378344D01*
X113585413Y-106257392D01*
X113706366Y-106196916D01*
X114371604Y-106196916D01*
X114371604Y-105592154D02*
X113524937Y-105592154D01*
X113645890Y-105592154D02*
X113585413Y-105531678D01*
X113524937Y-105410725D01*
X113524937Y-105229297D01*
X113585413Y-105108345D01*
X113706366Y-105047868D01*
X114371604Y-105047868D01*
X113706366Y-105047868D02*
X113585413Y-104987392D01*
X113524937Y-104866440D01*
X113524937Y-104685011D01*
X113585413Y-104564059D01*
X113706366Y-104503583D01*
X114371604Y-104503583D01*
D12*
X72223334Y-102306381D02*
X71747143Y-102306381D01*
X71747143Y-101306381D01*
X73080477Y-102306381D02*
X72509048Y-102306381D01*
X72794762Y-102306381D02*
X72794762Y-101306381D01*
X72699524Y-101449238D01*
X72604286Y-101544476D01*
X72509048Y-101592095D01*
X84510762Y-152598381D02*
X84034571Y-152598381D01*
X84034571Y-151598381D01*
X85034571Y-151598381D02*
X85225048Y-151598381D01*
X85320286Y-151646000D01*
X85415524Y-151741238D01*
X85463143Y-151931714D01*
X85463143Y-152265048D01*
X85415524Y-152455524D01*
X85320286Y-152550762D01*
X85225048Y-152598381D01*
X85034571Y-152598381D01*
X84939333Y-152550762D01*
X84844095Y-152455524D01*
X84796476Y-152265048D01*
X84796476Y-151931714D01*
X84844095Y-151741238D01*
X84939333Y-151646000D01*
X85034571Y-151598381D01*
X86177429Y-152979333D02*
X86129809Y-152931714D01*
X86034571Y-152788857D01*
X85986952Y-152693619D01*
X85939333Y-152550762D01*
X85891714Y-152312667D01*
X85891714Y-152122190D01*
X85939333Y-151884095D01*
X85986952Y-151741238D01*
X86034571Y-151646000D01*
X86129809Y-151503143D01*
X86177429Y-151455524D01*
X86558381Y-152598381D02*
X86558381Y-151598381D01*
X86939333Y-152979333D02*
X86986952Y-152931714D01*
X87082190Y-152788857D01*
X87129809Y-152693619D01*
X87177428Y-152550762D01*
X87225047Y-152312667D01*
X87225047Y-152122190D01*
X87177428Y-151884095D01*
X87129809Y-151741238D01*
X87082190Y-151646000D01*
X86986952Y-151503143D01*
X86939333Y-151455524D01*
X88225048Y-152598381D02*
X87653619Y-152598381D01*
X87939333Y-152598381D02*
X87939333Y-151598381D01*
X87844095Y-151741238D01*
X87748857Y-151836476D01*
X87653619Y-151884095D01*
X109371048Y-152598381D02*
X108894857Y-152598381D01*
X108894857Y-151598381D01*
X109894857Y-151598381D02*
X110085334Y-151598381D01*
X110180572Y-151646000D01*
X110275810Y-151741238D01*
X110323429Y-151931714D01*
X110323429Y-152265048D01*
X110275810Y-152455524D01*
X110180572Y-152550762D01*
X110085334Y-152598381D01*
X109894857Y-152598381D01*
X109799619Y-152550762D01*
X109704381Y-152455524D01*
X109656762Y-152265048D01*
X109656762Y-151931714D01*
X109704381Y-151741238D01*
X109799619Y-151646000D01*
X109894857Y-151598381D01*
X111037715Y-152979333D02*
X110990095Y-152931714D01*
X110894857Y-152788857D01*
X110847238Y-152693619D01*
X110799619Y-152550762D01*
X110752000Y-152312667D01*
X110752000Y-152122190D01*
X110799619Y-151884095D01*
X110847238Y-151741238D01*
X110894857Y-151646000D01*
X110990095Y-151503143D01*
X111037715Y-151455524D01*
X112085334Y-152693619D02*
X111990096Y-152646000D01*
X111894858Y-152550762D01*
X111752001Y-152407905D01*
X111656762Y-152360286D01*
X111561524Y-152360286D01*
X111609143Y-152598381D02*
X111513905Y-152550762D01*
X111418667Y-152455524D01*
X111371048Y-152265048D01*
X111371048Y-151931714D01*
X111418667Y-151741238D01*
X111513905Y-151646000D01*
X111609143Y-151598381D01*
X111799620Y-151598381D01*
X111894858Y-151646000D01*
X111990096Y-151741238D01*
X112037715Y-151931714D01*
X112037715Y-152265048D01*
X111990096Y-152455524D01*
X111894858Y-152550762D01*
X111799620Y-152598381D01*
X111609143Y-152598381D01*
X112371048Y-152979333D02*
X112418667Y-152931714D01*
X112513905Y-152788857D01*
X112561524Y-152693619D01*
X112609143Y-152550762D01*
X112656762Y-152312667D01*
X112656762Y-152122190D01*
X112609143Y-151884095D01*
X112561524Y-151741238D01*
X112513905Y-151646000D01*
X112418667Y-151503143D01*
X112371048Y-151455524D01*
X113656763Y-152598381D02*
X113085334Y-152598381D01*
X113371048Y-152598381D02*
X113371048Y-151598381D01*
X113275810Y-151741238D01*
X113180572Y-151836476D01*
X113085334Y-151884095D01*
X54935524Y-144978381D02*
X54459333Y-144978381D01*
X54459333Y-143978381D01*
X55459333Y-143978381D02*
X55649810Y-143978381D01*
X55745048Y-144026000D01*
X55840286Y-144121238D01*
X55887905Y-144311714D01*
X55887905Y-144645048D01*
X55840286Y-144835524D01*
X55745048Y-144930762D01*
X55649810Y-144978381D01*
X55459333Y-144978381D01*
X55364095Y-144930762D01*
X55268857Y-144835524D01*
X55221238Y-144645048D01*
X55221238Y-144311714D01*
X55268857Y-144121238D01*
X55364095Y-144026000D01*
X55459333Y-143978381D01*
X56840286Y-144978381D02*
X56268857Y-144978381D01*
X56554571Y-144978381D02*
X56554571Y-143978381D01*
X56459333Y-144121238D01*
X56364095Y-144216476D01*
X56268857Y-144264095D01*
X79271905Y-97480381D02*
X79271905Y-96480381D01*
X79652858Y-96480381D01*
X79748096Y-96528000D01*
X79795715Y-96575619D01*
X79843334Y-96670857D01*
X79843334Y-96813714D01*
X79795715Y-96908952D01*
X79748096Y-96956571D01*
X79652858Y-97004190D01*
X79271905Y-97004190D01*
X80795715Y-97480381D02*
X80224286Y-97480381D01*
X80510000Y-97480381D02*
X80510000Y-96480381D01*
X80414762Y-96623238D01*
X80319524Y-96718476D01*
X80224286Y-96766095D01*
X103417619Y-143351238D02*
X103370000Y-143446476D01*
X103274762Y-143541714D01*
X103131905Y-143684571D01*
X103084286Y-143779810D01*
X103084286Y-143875048D01*
X103322381Y-143827429D02*
X103274762Y-143922667D01*
X103179524Y-144017905D01*
X102989048Y-144065524D01*
X102655714Y-144065524D01*
X102465238Y-144017905D01*
X102370000Y-143922667D01*
X102322381Y-143827429D01*
X102322381Y-143636952D01*
X102370000Y-143541714D01*
X102465238Y-143446476D01*
X102655714Y-143398857D01*
X102989048Y-143398857D01*
X103179524Y-143446476D01*
X103274762Y-143541714D01*
X103322381Y-143636952D01*
X103322381Y-143827429D01*
X103322381Y-142446476D02*
X103322381Y-143017905D01*
X103322381Y-142732191D02*
X102322381Y-142732191D01*
X102465238Y-142827429D01*
X102560476Y-142922667D01*
X102608095Y-143017905D01*
X66878381Y-138850666D02*
X66402190Y-139184000D01*
X66878381Y-139422095D02*
X65878381Y-139422095D01*
X65878381Y-139041142D01*
X65926000Y-138945904D01*
X65973619Y-138898285D01*
X66068857Y-138850666D01*
X66211714Y-138850666D01*
X66306952Y-138898285D01*
X66354571Y-138945904D01*
X66402190Y-139041142D01*
X66402190Y-139422095D01*
X66878381Y-137898285D02*
X66878381Y-138469714D01*
X66878381Y-138184000D02*
X65878381Y-138184000D01*
X66021238Y-138279238D01*
X66116476Y-138374476D01*
X66164095Y-138469714D01*
X66878381Y-131738666D02*
X66402190Y-132072000D01*
X66878381Y-132310095D02*
X65878381Y-132310095D01*
X65878381Y-131929142D01*
X65926000Y-131833904D01*
X65973619Y-131786285D01*
X66068857Y-131738666D01*
X66211714Y-131738666D01*
X66306952Y-131786285D01*
X66354571Y-131833904D01*
X66402190Y-131929142D01*
X66402190Y-132310095D01*
X65973619Y-131357714D02*
X65926000Y-131310095D01*
X65878381Y-131214857D01*
X65878381Y-130976761D01*
X65926000Y-130881523D01*
X65973619Y-130833904D01*
X66068857Y-130786285D01*
X66164095Y-130786285D01*
X66306952Y-130833904D01*
X66878381Y-131405333D01*
X66878381Y-130786285D01*
X69032381Y-106846666D02*
X68556190Y-107180000D01*
X69032381Y-107418095D02*
X68032381Y-107418095D01*
X68032381Y-107037142D01*
X68080000Y-106941904D01*
X68127619Y-106894285D01*
X68222857Y-106846666D01*
X68365714Y-106846666D01*
X68460952Y-106894285D01*
X68508571Y-106941904D01*
X68556190Y-107037142D01*
X68556190Y-107418095D01*
X68032381Y-106513333D02*
X68032381Y-105894285D01*
X68413333Y-106227619D01*
X68413333Y-106084761D01*
X68460952Y-105989523D01*
X68508571Y-105941904D01*
X68603810Y-105894285D01*
X68841905Y-105894285D01*
X68937143Y-105941904D01*
X68984762Y-105989523D01*
X69032381Y-106084761D01*
X69032381Y-106370476D01*
X68984762Y-106465714D01*
X68937143Y-106513333D01*
X69683334Y-142184381D02*
X69350000Y-141708190D01*
X69111905Y-142184381D02*
X69111905Y-141184381D01*
X69492858Y-141184381D01*
X69588096Y-141232000D01*
X69635715Y-141279619D01*
X69683334Y-141374857D01*
X69683334Y-141517714D01*
X69635715Y-141612952D01*
X69588096Y-141660571D01*
X69492858Y-141708190D01*
X69111905Y-141708190D01*
X70540477Y-141517714D02*
X70540477Y-142184381D01*
X70302381Y-141136762D02*
X70064286Y-141851048D01*
X70683334Y-141851048D01*
X69154381Y-100750666D02*
X68678190Y-101084000D01*
X69154381Y-101322095D02*
X68154381Y-101322095D01*
X68154381Y-100941142D01*
X68202000Y-100845904D01*
X68249619Y-100798285D01*
X68344857Y-100750666D01*
X68487714Y-100750666D01*
X68582952Y-100798285D01*
X68630571Y-100845904D01*
X68678190Y-100941142D01*
X68678190Y-101322095D01*
X68154381Y-99845904D02*
X68154381Y-100322095D01*
X68630571Y-100369714D01*
X68582952Y-100322095D01*
X68535333Y-100226857D01*
X68535333Y-99988761D01*
X68582952Y-99893523D01*
X68630571Y-99845904D01*
X68725810Y-99798285D01*
X68963905Y-99798285D01*
X69059143Y-99845904D01*
X69106762Y-99893523D01*
X69154381Y-99988761D01*
X69154381Y-100226857D01*
X69106762Y-100322095D01*
X69059143Y-100369714D01*
X71461334Y-115768381D02*
X71128000Y-115292190D01*
X70889905Y-115768381D02*
X70889905Y-114768381D01*
X71270858Y-114768381D01*
X71366096Y-114816000D01*
X71413715Y-114863619D01*
X71461334Y-114958857D01*
X71461334Y-115101714D01*
X71413715Y-115196952D01*
X71366096Y-115244571D01*
X71270858Y-115292190D01*
X70889905Y-115292190D01*
X72318477Y-114768381D02*
X72128000Y-114768381D01*
X72032762Y-114816000D01*
X71985143Y-114863619D01*
X71889905Y-115006476D01*
X71842286Y-115196952D01*
X71842286Y-115577905D01*
X71889905Y-115673143D01*
X71937524Y-115720762D01*
X72032762Y-115768381D01*
X72223239Y-115768381D01*
X72318477Y-115720762D01*
X72366096Y-115673143D01*
X72413715Y-115577905D01*
X72413715Y-115339810D01*
X72366096Y-115244571D01*
X72318477Y-115196952D01*
X72223239Y-115149333D01*
X72032762Y-115149333D01*
X71937524Y-115196952D01*
X71889905Y-115244571D01*
X71842286Y-115339810D01*
X96642181Y-100496666D02*
X96165990Y-100830000D01*
X96642181Y-101068095D02*
X95642181Y-101068095D01*
X95642181Y-100687142D01*
X95689800Y-100591904D01*
X95737419Y-100544285D01*
X95832657Y-100496666D01*
X95975514Y-100496666D01*
X96070752Y-100544285D01*
X96118371Y-100591904D01*
X96165990Y-100687142D01*
X96165990Y-101068095D01*
X95642181Y-100163333D02*
X95642181Y-99496666D01*
X96642181Y-99925238D01*
X97277181Y-110351866D02*
X96800990Y-110685200D01*
X97277181Y-110923295D02*
X96277181Y-110923295D01*
X96277181Y-110542342D01*
X96324800Y-110447104D01*
X96372419Y-110399485D01*
X96467657Y-110351866D01*
X96610514Y-110351866D01*
X96705752Y-110399485D01*
X96753371Y-110447104D01*
X96800990Y-110542342D01*
X96800990Y-110923295D01*
X96705752Y-109780438D02*
X96658133Y-109875676D01*
X96610514Y-109923295D01*
X96515276Y-109970914D01*
X96467657Y-109970914D01*
X96372419Y-109923295D01*
X96324800Y-109875676D01*
X96277181Y-109780438D01*
X96277181Y-109589961D01*
X96324800Y-109494723D01*
X96372419Y-109447104D01*
X96467657Y-109399485D01*
X96515276Y-109399485D01*
X96610514Y-109447104D01*
X96658133Y-109494723D01*
X96705752Y-109589961D01*
X96705752Y-109780438D01*
X96753371Y-109875676D01*
X96800990Y-109923295D01*
X96896229Y-109970914D01*
X97086705Y-109970914D01*
X97181943Y-109923295D01*
X97229562Y-109875676D01*
X97277181Y-109780438D01*
X97277181Y-109589961D01*
X97229562Y-109494723D01*
X97181943Y-109447104D01*
X97086705Y-109399485D01*
X96896229Y-109399485D01*
X96800990Y-109447104D01*
X96753371Y-109494723D01*
X96705752Y-109589961D01*
X95468781Y-113501466D02*
X94992590Y-113834800D01*
X95468781Y-114072895D02*
X94468781Y-114072895D01*
X94468781Y-113691942D01*
X94516400Y-113596704D01*
X94564019Y-113549085D01*
X94659257Y-113501466D01*
X94802114Y-113501466D01*
X94897352Y-113549085D01*
X94944971Y-113596704D01*
X94992590Y-113691942D01*
X94992590Y-114072895D01*
X95468781Y-113025276D02*
X95468781Y-112834800D01*
X95421162Y-112739561D01*
X95373543Y-112691942D01*
X95230686Y-112596704D01*
X95040210Y-112549085D01*
X94659257Y-112549085D01*
X94564019Y-112596704D01*
X94516400Y-112644323D01*
X94468781Y-112739561D01*
X94468781Y-112930038D01*
X94516400Y-113025276D01*
X94564019Y-113072895D01*
X94659257Y-113120514D01*
X94897352Y-113120514D01*
X94992590Y-113072895D01*
X95040210Y-113025276D01*
X95087829Y-112930038D01*
X95087829Y-112739561D01*
X95040210Y-112644323D01*
X94992590Y-112596704D01*
X94897352Y-112549085D01*
X55030762Y-113990381D02*
X54697428Y-113514190D01*
X54459333Y-113990381D02*
X54459333Y-112990381D01*
X54840286Y-112990381D01*
X54935524Y-113038000D01*
X54983143Y-113085619D01*
X55030762Y-113180857D01*
X55030762Y-113323714D01*
X54983143Y-113418952D01*
X54935524Y-113466571D01*
X54840286Y-113514190D01*
X54459333Y-113514190D01*
X55792667Y-113466571D02*
X55459333Y-113466571D01*
X55459333Y-113990381D02*
X55459333Y-112990381D01*
X55935524Y-112990381D01*
X56840286Y-113990381D02*
X56268857Y-113990381D01*
X56554571Y-113990381D02*
X56554571Y-112990381D01*
X56459333Y-113133238D01*
X56364095Y-113228476D01*
X56268857Y-113276095D01*
X76454095Y-140676381D02*
X76454095Y-141485905D01*
X76501714Y-141581143D01*
X76549333Y-141628762D01*
X76644571Y-141676381D01*
X76835048Y-141676381D01*
X76930286Y-141628762D01*
X76977905Y-141581143D01*
X77025524Y-141485905D01*
X77025524Y-140676381D01*
X78025524Y-141676381D02*
X77454095Y-141676381D01*
X77739809Y-141676381D02*
X77739809Y-140676381D01*
X77644571Y-140819238D01*
X77549333Y-140914476D01*
X77454095Y-140962095D01*
X78486095Y-114260381D02*
X78486095Y-115069905D01*
X78533714Y-115165143D01*
X78581333Y-115212762D01*
X78676571Y-115260381D01*
X78867048Y-115260381D01*
X78962286Y-115212762D01*
X79009905Y-115165143D01*
X79057524Y-115069905D01*
X79057524Y-114260381D01*
X79486095Y-114355619D02*
X79533714Y-114308000D01*
X79628952Y-114260381D01*
X79867048Y-114260381D01*
X79962286Y-114308000D01*
X80009905Y-114355619D01*
X80057524Y-114450857D01*
X80057524Y-114546095D01*
X80009905Y-114688952D01*
X79438476Y-115260381D01*
X80057524Y-115260381D01*
X90424095Y-101687381D02*
X90424095Y-102496905D01*
X90471714Y-102592143D01*
X90519333Y-102639762D01*
X90614571Y-102687381D01*
X90805048Y-102687381D01*
X90900286Y-102639762D01*
X90947905Y-102592143D01*
X90995524Y-102496905D01*
X90995524Y-101687381D01*
X91376476Y-101687381D02*
X91995524Y-101687381D01*
X91662190Y-102068333D01*
X91805048Y-102068333D01*
X91900286Y-102115952D01*
X91947905Y-102163571D01*
X91995524Y-102258810D01*
X91995524Y-102496905D01*
X91947905Y-102592143D01*
X91900286Y-102639762D01*
X91805048Y-102687381D01*
X91519333Y-102687381D01*
X91424095Y-102639762D01*
X91376476Y-102592143D01*
M02*
