M48
;DRILL file {KiCad 4.0.2-stable} date Tuesday, August 30, 2016 'PMt' 11:58:50 PM
;FORMAT={2:4/ absolute / inch / suppress leading zeros}
FMAT,2
INCH,TZ
T1C0.016
T2C0.039
T3C0.040
T4C0.059
T5C0.087
%
G90
G05
M72
T1
X28270Y-55220
X29070Y-44840
X29700Y-52900
X29700Y-54200
X30000Y-53200
X30000Y-53700
X30800Y-53700
X31100Y-53200
X32200Y-45400
X32200Y-54200
X32200Y-55200
X34920Y-43350
X34930Y-42260
X37910Y-44190
X38120Y-41150
T2
X23869Y-40800
X23869Y-41784
X23869Y-53200
X23869Y-54184
X34100Y-61731
X35084Y-61731
X42231Y-47416
X42231Y-48400
X42231Y-54916
X42231Y-55900
X44000Y-61731
X44984Y-61731
T3
X32700Y-38200
X33700Y-38200
T4
X45769Y-39853
X45769Y-40916
X45769Y-42805
X45769Y-43868
X47738Y-41861
T5
X22190Y-38792
X22190Y-42807
X22190Y-51192
X22190Y-55207
X32092Y-63410
X36107Y-63410
X41992Y-63410
X43910Y-46393
X43910Y-50408
X43910Y-53893
X43910Y-57908
X46007Y-63410
T0
M30
