G04 #@! TF.FileFunction,Copper,L2,Bot,Signal*
%FSLAX46Y46*%
G04 Gerber Fmt 4.6, Leading zero omitted, Abs format (unit mm)*
G04 Created by KiCad (PCBNEW 4.0.2-stable) date Tuesday, August 30, 2016 'PMt' 11:58:46 PM*
%MOMM*%
G01*
G04 APERTURE LIST*
%ADD10C,0.100000*%
%ADD11O,7.000240X3.500120*%
%ADD12O,2.499360X1.600200*%
%ADD13O,2.540000X2.540000*%
%ADD14O,2.247900X2.247900*%
%ADD15O,3.500120X7.000240*%
%ADD16O,1.600200X2.499360*%
%ADD17R,2.032000X2.032000*%
%ADD18O,2.032000X2.032000*%
%ADD19C,0.600000*%
%ADD20C,0.250000*%
%ADD21C,0.254000*%
G04 APERTURE END LIST*
D10*
D11*
X111531400Y-117838220D03*
X111531400Y-128036320D03*
D12*
X107266740Y-122936000D03*
X107266740Y-120436640D03*
D13*
X121254520Y-106326940D03*
D14*
X116253260Y-108724700D03*
X116253260Y-103926640D03*
X116253260Y-101226620D03*
X116253260Y-111424720D03*
D15*
X91711780Y-161061400D03*
X81513680Y-161061400D03*
D16*
X86614000Y-156796740D03*
X89113360Y-156796740D03*
D15*
X116857780Y-161061400D03*
X106659680Y-161061400D03*
D16*
X111760000Y-156796740D03*
X114259360Y-156796740D03*
D11*
X56362600Y-140225780D03*
X56362600Y-130027680D03*
D12*
X60627260Y-135128000D03*
X60627260Y-137627360D03*
D17*
X83058000Y-97028000D03*
D18*
X85598000Y-97028000D03*
D11*
X111531400Y-136888220D03*
X111531400Y-147086320D03*
D12*
X107266740Y-141986000D03*
X107266740Y-139486640D03*
D11*
X56362600Y-108729780D03*
X56362600Y-98531680D03*
D12*
X60627260Y-103632000D03*
X60627260Y-106131360D03*
D19*
X78994000Y-135128000D03*
X76200000Y-135128000D03*
X71805800Y-140258800D03*
X73837800Y-113893600D03*
X96824800Y-104521000D03*
X75438000Y-137668000D03*
X75438000Y-134366000D03*
X88722200Y-107340400D03*
X88696800Y-110109000D03*
X96291400Y-112242600D03*
X81788000Y-115316000D03*
X81788000Y-140208000D03*
X81788000Y-137668000D03*
X78232000Y-136398000D03*
X76200000Y-136398000D03*
D20*
X76200000Y-135128000D02*
X78994000Y-135128000D01*
X75438000Y-134366000D02*
X75438000Y-137668000D01*
X88722200Y-110083600D02*
X88722200Y-107340400D01*
X88696800Y-110109000D02*
X88722200Y-110083600D01*
X110744000Y-100921820D02*
X115948460Y-100921820D01*
X115948460Y-100921820D02*
X116253260Y-101226620D01*
X96291400Y-112242600D02*
X96291400Y-137439400D01*
X100838000Y-141986000D02*
X107266740Y-141986000D01*
X96291400Y-137439400D02*
X100838000Y-141986000D01*
X110817660Y-100921820D02*
X110744000Y-100921820D01*
X110744000Y-100921820D02*
X106926380Y-100921820D01*
X104800400Y-112242600D02*
X96291400Y-112242600D01*
X105892600Y-111150400D02*
X104800400Y-112242600D01*
X105892600Y-101955600D02*
X105892600Y-111150400D01*
X106926380Y-100921820D02*
X105892600Y-101955600D01*
X81788000Y-137668000D02*
X81788000Y-115316000D01*
X81788000Y-137668000D02*
X81788000Y-140208000D01*
X76200000Y-136398000D02*
X78232000Y-136398000D01*
D21*
G36*
X127052000Y-169216000D02*
X40842000Y-169216000D01*
X40842000Y-159235304D01*
X79382620Y-159235304D01*
X79382620Y-162887496D01*
X79544837Y-163703017D01*
X80006793Y-164394383D01*
X80698159Y-164856339D01*
X81513680Y-165018556D01*
X82329201Y-164856339D01*
X83020567Y-164394383D01*
X83482523Y-163703017D01*
X83644740Y-162887496D01*
X83644740Y-159235304D01*
X83482523Y-158419783D01*
X83020567Y-157728417D01*
X82329201Y-157266461D01*
X81513680Y-157104244D01*
X80698159Y-157266461D01*
X80006793Y-157728417D01*
X79544837Y-158419783D01*
X79382620Y-159235304D01*
X40842000Y-159235304D01*
X40842000Y-156315213D01*
X85432900Y-156315213D01*
X85432900Y-157278267D01*
X85522806Y-157730254D01*
X85778836Y-158113431D01*
X86162013Y-158369461D01*
X86614000Y-158459367D01*
X87065987Y-158369461D01*
X87449164Y-158113431D01*
X87705194Y-157730254D01*
X87795100Y-157278267D01*
X87795100Y-156315213D01*
X87932260Y-156315213D01*
X87932260Y-157278267D01*
X88022166Y-157730254D01*
X88278196Y-158113431D01*
X88661373Y-158369461D01*
X89113360Y-158459367D01*
X89565347Y-158369461D01*
X89946918Y-158114504D01*
X89742937Y-158419783D01*
X89580720Y-159235304D01*
X89580720Y-162887496D01*
X89742937Y-163703017D01*
X90204893Y-164394383D01*
X90896259Y-164856339D01*
X91711780Y-165018556D01*
X92527301Y-164856339D01*
X93218667Y-164394383D01*
X93680623Y-163703017D01*
X93842840Y-162887496D01*
X93842840Y-159235304D01*
X104528620Y-159235304D01*
X104528620Y-162887496D01*
X104690837Y-163703017D01*
X105152793Y-164394383D01*
X105844159Y-164856339D01*
X106659680Y-165018556D01*
X107475201Y-164856339D01*
X108166567Y-164394383D01*
X108628523Y-163703017D01*
X108790740Y-162887496D01*
X108790740Y-159235304D01*
X108628523Y-158419783D01*
X108166567Y-157728417D01*
X107475201Y-157266461D01*
X106659680Y-157104244D01*
X105844159Y-157266461D01*
X105152793Y-157728417D01*
X104690837Y-158419783D01*
X104528620Y-159235304D01*
X93842840Y-159235304D01*
X93680623Y-158419783D01*
X93218667Y-157728417D01*
X92527301Y-157266461D01*
X91711780Y-157104244D01*
X90896259Y-157266461D01*
X90204923Y-157728397D01*
X90294460Y-157278267D01*
X90294460Y-156315213D01*
X110578900Y-156315213D01*
X110578900Y-157278267D01*
X110668806Y-157730254D01*
X110924836Y-158113431D01*
X111308013Y-158369461D01*
X111760000Y-158459367D01*
X112211987Y-158369461D01*
X112595164Y-158113431D01*
X112851194Y-157730254D01*
X112941100Y-157278267D01*
X112941100Y-156315213D01*
X113078260Y-156315213D01*
X113078260Y-157278267D01*
X113168166Y-157730254D01*
X113424196Y-158113431D01*
X113807373Y-158369461D01*
X114259360Y-158459367D01*
X114711347Y-158369461D01*
X115092918Y-158114504D01*
X114888937Y-158419783D01*
X114726720Y-159235304D01*
X114726720Y-162887496D01*
X114888937Y-163703017D01*
X115350893Y-164394383D01*
X116042259Y-164856339D01*
X116857780Y-165018556D01*
X117673301Y-164856339D01*
X118364667Y-164394383D01*
X118826623Y-163703017D01*
X118988840Y-162887496D01*
X118988840Y-159235304D01*
X118826623Y-158419783D01*
X118364667Y-157728417D01*
X117673301Y-157266461D01*
X116857780Y-157104244D01*
X116042259Y-157266461D01*
X115350923Y-157728397D01*
X115440460Y-157278267D01*
X115440460Y-156315213D01*
X115350554Y-155863226D01*
X115094524Y-155480049D01*
X114711347Y-155224019D01*
X114259360Y-155134113D01*
X113807373Y-155224019D01*
X113424196Y-155480049D01*
X113168166Y-155863226D01*
X113078260Y-156315213D01*
X112941100Y-156315213D01*
X112851194Y-155863226D01*
X112595164Y-155480049D01*
X112211987Y-155224019D01*
X111760000Y-155134113D01*
X111308013Y-155224019D01*
X110924836Y-155480049D01*
X110668806Y-155863226D01*
X110578900Y-156315213D01*
X90294460Y-156315213D01*
X90204554Y-155863226D01*
X89948524Y-155480049D01*
X89565347Y-155224019D01*
X89113360Y-155134113D01*
X88661373Y-155224019D01*
X88278196Y-155480049D01*
X88022166Y-155863226D01*
X87932260Y-156315213D01*
X87795100Y-156315213D01*
X87705194Y-155863226D01*
X87449164Y-155480049D01*
X87065987Y-155224019D01*
X86614000Y-155134113D01*
X86162013Y-155224019D01*
X85778836Y-155480049D01*
X85522806Y-155863226D01*
X85432900Y-156315213D01*
X40842000Y-156315213D01*
X40842000Y-147086320D01*
X107574244Y-147086320D01*
X107736461Y-147901841D01*
X108198417Y-148593207D01*
X108889783Y-149055163D01*
X109705304Y-149217380D01*
X113357496Y-149217380D01*
X114173017Y-149055163D01*
X114864383Y-148593207D01*
X115326339Y-147901841D01*
X115488556Y-147086320D01*
X115326339Y-146270799D01*
X114864383Y-145579433D01*
X114173017Y-145117477D01*
X113357496Y-144955260D01*
X109705304Y-144955260D01*
X108889783Y-145117477D01*
X108198417Y-145579433D01*
X107736461Y-146270799D01*
X107574244Y-147086320D01*
X40842000Y-147086320D01*
X40842000Y-140225780D01*
X52405444Y-140225780D01*
X52567661Y-141041301D01*
X53029617Y-141732667D01*
X53720983Y-142194623D01*
X54536504Y-142356840D01*
X58188696Y-142356840D01*
X59004217Y-142194623D01*
X59695583Y-141732667D01*
X60157539Y-141041301D01*
X60319756Y-140225780D01*
X60157539Y-139410259D01*
X59695603Y-138718923D01*
X60145733Y-138808460D01*
X61108787Y-138808460D01*
X61560774Y-138718554D01*
X61943951Y-138462524D01*
X62199981Y-138079347D01*
X62289887Y-137627360D01*
X62199981Y-137175373D01*
X61943951Y-136792196D01*
X61560774Y-136536166D01*
X61108787Y-136446260D01*
X60145733Y-136446260D01*
X59693746Y-136536166D01*
X59310569Y-136792196D01*
X59054539Y-137175373D01*
X58964633Y-137627360D01*
X59054539Y-138079347D01*
X59309496Y-138460918D01*
X59004217Y-138256937D01*
X58188696Y-138094720D01*
X54536504Y-138094720D01*
X53720983Y-138256937D01*
X53029617Y-138718893D01*
X52567661Y-139410259D01*
X52405444Y-140225780D01*
X40842000Y-140225780D01*
X40842000Y-135128000D01*
X58964633Y-135128000D01*
X59054539Y-135579987D01*
X59310569Y-135963164D01*
X59693746Y-136219194D01*
X60145733Y-136309100D01*
X61108787Y-136309100D01*
X61560774Y-136219194D01*
X61943951Y-135963164D01*
X62199981Y-135579987D01*
X62289887Y-135128000D01*
X62199981Y-134676013D01*
X62082952Y-134500865D01*
X74756882Y-134500865D01*
X74860339Y-134751252D01*
X74932000Y-134823038D01*
X74932000Y-137210877D01*
X74861013Y-137281741D01*
X74757118Y-137531946D01*
X74756882Y-137802865D01*
X74860339Y-138053252D01*
X75051741Y-138244987D01*
X75301946Y-138348882D01*
X75572865Y-138349118D01*
X75823252Y-138245661D01*
X76014987Y-138054259D01*
X76118882Y-137804054D01*
X76119118Y-137533135D01*
X76015661Y-137282748D01*
X75944000Y-137210962D01*
X75944000Y-137029076D01*
X76063946Y-137078882D01*
X76334865Y-137079118D01*
X76585252Y-136975661D01*
X76657038Y-136904000D01*
X77774877Y-136904000D01*
X77845741Y-136974987D01*
X78095946Y-137078882D01*
X78366865Y-137079118D01*
X78617252Y-136975661D01*
X78808987Y-136784259D01*
X78912882Y-136534054D01*
X78913118Y-136263135D01*
X78809661Y-136012748D01*
X78618259Y-135821013D01*
X78368054Y-135717118D01*
X78097135Y-135716882D01*
X77846748Y-135820339D01*
X77774962Y-135892000D01*
X76657123Y-135892000D01*
X76586259Y-135821013D01*
X76446515Y-135762986D01*
X76585252Y-135705661D01*
X76657038Y-135634000D01*
X78536877Y-135634000D01*
X78607741Y-135704987D01*
X78857946Y-135808882D01*
X79128865Y-135809118D01*
X79379252Y-135705661D01*
X79570987Y-135514259D01*
X79674882Y-135264054D01*
X79675118Y-134993135D01*
X79571661Y-134742748D01*
X79380259Y-134551013D01*
X79130054Y-134447118D01*
X78859135Y-134446882D01*
X78608748Y-134550339D01*
X78536962Y-134622000D01*
X76657123Y-134622000D01*
X76586259Y-134551013D01*
X76336054Y-134447118D01*
X76118930Y-134446929D01*
X76119118Y-134231135D01*
X76015661Y-133980748D01*
X75824259Y-133789013D01*
X75574054Y-133685118D01*
X75303135Y-133684882D01*
X75052748Y-133788339D01*
X74861013Y-133979741D01*
X74757118Y-134229946D01*
X74756882Y-134500865D01*
X62082952Y-134500865D01*
X61943951Y-134292836D01*
X61560774Y-134036806D01*
X61108787Y-133946900D01*
X60145733Y-133946900D01*
X59693746Y-134036806D01*
X59310569Y-134292836D01*
X59054539Y-134676013D01*
X58964633Y-135128000D01*
X40842000Y-135128000D01*
X40842000Y-130027680D01*
X52405444Y-130027680D01*
X52567661Y-130843201D01*
X53029617Y-131534567D01*
X53720983Y-131996523D01*
X54536504Y-132158740D01*
X58188696Y-132158740D01*
X59004217Y-131996523D01*
X59695583Y-131534567D01*
X60157539Y-130843201D01*
X60319756Y-130027680D01*
X60157539Y-129212159D01*
X59695583Y-128520793D01*
X59004217Y-128058837D01*
X58188696Y-127896620D01*
X54536504Y-127896620D01*
X53720983Y-128058837D01*
X53029617Y-128520793D01*
X52567661Y-129212159D01*
X52405444Y-130027680D01*
X40842000Y-130027680D01*
X40842000Y-115450865D01*
X81106882Y-115450865D01*
X81210339Y-115701252D01*
X81282000Y-115773038D01*
X81282000Y-137210877D01*
X81211013Y-137281741D01*
X81107118Y-137531946D01*
X81106882Y-137802865D01*
X81210339Y-138053252D01*
X81282000Y-138125038D01*
X81282000Y-139750877D01*
X81211013Y-139821741D01*
X81107118Y-140071946D01*
X81106882Y-140342865D01*
X81210339Y-140593252D01*
X81401741Y-140784987D01*
X81651946Y-140888882D01*
X81922865Y-140889118D01*
X82173252Y-140785661D01*
X82364987Y-140594259D01*
X82468882Y-140344054D01*
X82469118Y-140073135D01*
X82365661Y-139822748D01*
X82294000Y-139750962D01*
X82294000Y-138125123D01*
X82364987Y-138054259D01*
X82468882Y-137804054D01*
X82469118Y-137533135D01*
X82365661Y-137282748D01*
X82294000Y-137210962D01*
X82294000Y-115773123D01*
X82364987Y-115702259D01*
X82468882Y-115452054D01*
X82469118Y-115181135D01*
X82365661Y-114930748D01*
X82174259Y-114739013D01*
X81924054Y-114635118D01*
X81653135Y-114634882D01*
X81402748Y-114738339D01*
X81211013Y-114929741D01*
X81107118Y-115179946D01*
X81106882Y-115450865D01*
X40842000Y-115450865D01*
X40842000Y-112377465D01*
X95610282Y-112377465D01*
X95713739Y-112627852D01*
X95785400Y-112699638D01*
X95785400Y-137439400D01*
X95823917Y-137633038D01*
X95933604Y-137797196D01*
X100480204Y-142343796D01*
X100644362Y-142453483D01*
X100838000Y-142492000D01*
X105730109Y-142492000D01*
X105950049Y-142821164D01*
X106333226Y-143077194D01*
X106785213Y-143167100D01*
X107748267Y-143167100D01*
X108200254Y-143077194D01*
X108583431Y-142821164D01*
X108839461Y-142437987D01*
X108929367Y-141986000D01*
X108839461Y-141534013D01*
X108583431Y-141150836D01*
X108200254Y-140894806D01*
X107748267Y-140804900D01*
X106785213Y-140804900D01*
X106333226Y-140894806D01*
X105950049Y-141150836D01*
X105730109Y-141480000D01*
X101047592Y-141480000D01*
X99054232Y-139486640D01*
X105604113Y-139486640D01*
X105694019Y-139938627D01*
X105950049Y-140321804D01*
X106333226Y-140577834D01*
X106785213Y-140667740D01*
X107748267Y-140667740D01*
X108200254Y-140577834D01*
X108583431Y-140321804D01*
X108839461Y-139938627D01*
X108929367Y-139486640D01*
X108839461Y-139034653D01*
X108584504Y-138653082D01*
X108889783Y-138857063D01*
X109705304Y-139019280D01*
X113357496Y-139019280D01*
X114173017Y-138857063D01*
X114864383Y-138395107D01*
X115326339Y-137703741D01*
X115488556Y-136888220D01*
X115326339Y-136072699D01*
X114864383Y-135381333D01*
X114173017Y-134919377D01*
X113357496Y-134757160D01*
X109705304Y-134757160D01*
X108889783Y-134919377D01*
X108198417Y-135381333D01*
X107736461Y-136072699D01*
X107574244Y-136888220D01*
X107736461Y-137703741D01*
X108198397Y-138395077D01*
X107748267Y-138305540D01*
X106785213Y-138305540D01*
X106333226Y-138395446D01*
X105950049Y-138651476D01*
X105694019Y-139034653D01*
X105604113Y-139486640D01*
X99054232Y-139486640D01*
X96797400Y-137229808D01*
X96797400Y-128036320D01*
X107574244Y-128036320D01*
X107736461Y-128851841D01*
X108198417Y-129543207D01*
X108889783Y-130005163D01*
X109705304Y-130167380D01*
X113357496Y-130167380D01*
X114173017Y-130005163D01*
X114864383Y-129543207D01*
X115326339Y-128851841D01*
X115488556Y-128036320D01*
X115326339Y-127220799D01*
X114864383Y-126529433D01*
X114173017Y-126067477D01*
X113357496Y-125905260D01*
X109705304Y-125905260D01*
X108889783Y-126067477D01*
X108198417Y-126529433D01*
X107736461Y-127220799D01*
X107574244Y-128036320D01*
X96797400Y-128036320D01*
X96797400Y-122936000D01*
X105604113Y-122936000D01*
X105694019Y-123387987D01*
X105950049Y-123771164D01*
X106333226Y-124027194D01*
X106785213Y-124117100D01*
X107748267Y-124117100D01*
X108200254Y-124027194D01*
X108583431Y-123771164D01*
X108839461Y-123387987D01*
X108929367Y-122936000D01*
X108839461Y-122484013D01*
X108583431Y-122100836D01*
X108200254Y-121844806D01*
X107748267Y-121754900D01*
X106785213Y-121754900D01*
X106333226Y-121844806D01*
X105950049Y-122100836D01*
X105694019Y-122484013D01*
X105604113Y-122936000D01*
X96797400Y-122936000D01*
X96797400Y-120436640D01*
X105604113Y-120436640D01*
X105694019Y-120888627D01*
X105950049Y-121271804D01*
X106333226Y-121527834D01*
X106785213Y-121617740D01*
X107748267Y-121617740D01*
X108200254Y-121527834D01*
X108583431Y-121271804D01*
X108839461Y-120888627D01*
X108929367Y-120436640D01*
X108839461Y-119984653D01*
X108584504Y-119603082D01*
X108889783Y-119807063D01*
X109705304Y-119969280D01*
X113357496Y-119969280D01*
X114173017Y-119807063D01*
X114864383Y-119345107D01*
X115326339Y-118653741D01*
X115488556Y-117838220D01*
X115326339Y-117022699D01*
X114864383Y-116331333D01*
X114173017Y-115869377D01*
X113357496Y-115707160D01*
X109705304Y-115707160D01*
X108889783Y-115869377D01*
X108198417Y-116331333D01*
X107736461Y-117022699D01*
X107574244Y-117838220D01*
X107736461Y-118653741D01*
X108198397Y-119345077D01*
X107748267Y-119255540D01*
X106785213Y-119255540D01*
X106333226Y-119345446D01*
X105950049Y-119601476D01*
X105694019Y-119984653D01*
X105604113Y-120436640D01*
X96797400Y-120436640D01*
X96797400Y-112748600D01*
X104800400Y-112748600D01*
X104994038Y-112710083D01*
X105158196Y-112600396D01*
X106250396Y-111508196D01*
X106360083Y-111344038D01*
X106398600Y-111150400D01*
X106398600Y-102165192D01*
X107135972Y-101427820D01*
X114758847Y-101427820D01*
X114833383Y-101802539D01*
X115159616Y-102290780D01*
X115587420Y-102576630D01*
X115159616Y-102862480D01*
X114833383Y-103350721D01*
X114718826Y-103926640D01*
X114833383Y-104502559D01*
X115159616Y-104990800D01*
X115647857Y-105317033D01*
X115708415Y-105329079D01*
X115613833Y-105368159D01*
X115295597Y-105685840D01*
X115123157Y-106101123D01*
X115122764Y-106550784D01*
X115294479Y-106966367D01*
X115612160Y-107284603D01*
X115704653Y-107323010D01*
X115647857Y-107334307D01*
X115159616Y-107660540D01*
X114833383Y-108148781D01*
X114718826Y-108724700D01*
X114833383Y-109300619D01*
X115159616Y-109788860D01*
X115587420Y-110074710D01*
X115159616Y-110360560D01*
X114833383Y-110848801D01*
X114718826Y-111424720D01*
X114833383Y-112000639D01*
X115159616Y-112488880D01*
X115647857Y-112815113D01*
X116223776Y-112929670D01*
X116282744Y-112929670D01*
X116858663Y-112815113D01*
X117346904Y-112488880D01*
X117673137Y-112000639D01*
X117762873Y-111549504D01*
X120124024Y-111549504D01*
X120295739Y-111965087D01*
X120613420Y-112283323D01*
X121028703Y-112455763D01*
X121478364Y-112456156D01*
X121893947Y-112284441D01*
X122212183Y-111966760D01*
X122384623Y-111551477D01*
X122385016Y-111101816D01*
X122213301Y-110686233D01*
X121895620Y-110367997D01*
X121480337Y-110195557D01*
X121030676Y-110195164D01*
X120615093Y-110366879D01*
X120296857Y-110684560D01*
X120124417Y-111099843D01*
X120124024Y-111549504D01*
X117762873Y-111549504D01*
X117787694Y-111424720D01*
X117673137Y-110848801D01*
X117346904Y-110360560D01*
X116919100Y-110074710D01*
X117346904Y-109788860D01*
X117673137Y-109300619D01*
X117787694Y-108724700D01*
X117673137Y-108148781D01*
X117346904Y-107660540D01*
X116858663Y-107334307D01*
X116802255Y-107323087D01*
X116892687Y-107285721D01*
X117210923Y-106968040D01*
X117383363Y-106552757D01*
X117383560Y-106326940D01*
X119571175Y-106326940D01*
X119696850Y-106958750D01*
X120054742Y-107494373D01*
X120590365Y-107852265D01*
X121222175Y-107977940D01*
X121286865Y-107977940D01*
X121918675Y-107852265D01*
X122454298Y-107494373D01*
X122812190Y-106958750D01*
X122937865Y-106326940D01*
X122812190Y-105695130D01*
X122454298Y-105159507D01*
X121918675Y-104801615D01*
X121286865Y-104675940D01*
X121222175Y-104675940D01*
X120590365Y-104801615D01*
X120054742Y-105159507D01*
X119696850Y-105695130D01*
X119571175Y-106326940D01*
X117383560Y-106326940D01*
X117383756Y-106103096D01*
X117212041Y-105687513D01*
X116894360Y-105369277D01*
X116797731Y-105329153D01*
X116858663Y-105317033D01*
X117346904Y-104990800D01*
X117673137Y-104502559D01*
X117787694Y-103926640D01*
X117673137Y-103350721D01*
X117346904Y-102862480D01*
X116919100Y-102576630D01*
X117346904Y-102290780D01*
X117673137Y-101802539D01*
X117722959Y-101552064D01*
X120124024Y-101552064D01*
X120295739Y-101967647D01*
X120613420Y-102285883D01*
X121028703Y-102458323D01*
X121478364Y-102458716D01*
X121893947Y-102287001D01*
X122212183Y-101969320D01*
X122384623Y-101554037D01*
X122385016Y-101104376D01*
X122213301Y-100688793D01*
X121895620Y-100370557D01*
X121480337Y-100198117D01*
X121030676Y-100197724D01*
X120615093Y-100369439D01*
X120296857Y-100687120D01*
X120124417Y-101102403D01*
X120124024Y-101552064D01*
X117722959Y-101552064D01*
X117787694Y-101226620D01*
X117673137Y-100650701D01*
X117346904Y-100162460D01*
X116858663Y-99836227D01*
X116282744Y-99721670D01*
X116223776Y-99721670D01*
X115647857Y-99836227D01*
X115159616Y-100162460D01*
X114990326Y-100415820D01*
X106926380Y-100415820D01*
X106732742Y-100454337D01*
X106663620Y-100500523D01*
X106568584Y-100564024D01*
X105534804Y-101597804D01*
X105425117Y-101761962D01*
X105386600Y-101955600D01*
X105386600Y-110940808D01*
X104590808Y-111736600D01*
X96748523Y-111736600D01*
X96677659Y-111665613D01*
X96427454Y-111561718D01*
X96156535Y-111561482D01*
X95906148Y-111664939D01*
X95714413Y-111856341D01*
X95610518Y-112106546D01*
X95610282Y-112377465D01*
X40842000Y-112377465D01*
X40842000Y-108729780D01*
X52405444Y-108729780D01*
X52567661Y-109545301D01*
X53029617Y-110236667D01*
X53720983Y-110698623D01*
X54536504Y-110860840D01*
X58188696Y-110860840D01*
X59004217Y-110698623D01*
X59684810Y-110243865D01*
X88015682Y-110243865D01*
X88119139Y-110494252D01*
X88310541Y-110685987D01*
X88560746Y-110789882D01*
X88831665Y-110790118D01*
X89082052Y-110686661D01*
X89273787Y-110495259D01*
X89377682Y-110245054D01*
X89377918Y-109974135D01*
X89274461Y-109723748D01*
X89228200Y-109677407D01*
X89228200Y-107797523D01*
X89299187Y-107726659D01*
X89403082Y-107476454D01*
X89403318Y-107205535D01*
X89299861Y-106955148D01*
X89108459Y-106763413D01*
X88858254Y-106659518D01*
X88587335Y-106659282D01*
X88336948Y-106762739D01*
X88145213Y-106954141D01*
X88041318Y-107204346D01*
X88041082Y-107475265D01*
X88144539Y-107725652D01*
X88216200Y-107797438D01*
X88216200Y-109626521D01*
X88119813Y-109722741D01*
X88015918Y-109972946D01*
X88015682Y-110243865D01*
X59684810Y-110243865D01*
X59695583Y-110236667D01*
X60157539Y-109545301D01*
X60319756Y-108729780D01*
X60157539Y-107914259D01*
X59695603Y-107222923D01*
X60145733Y-107312460D01*
X61108787Y-107312460D01*
X61560774Y-107222554D01*
X61943951Y-106966524D01*
X62199981Y-106583347D01*
X62289887Y-106131360D01*
X62199981Y-105679373D01*
X61943951Y-105296196D01*
X61560774Y-105040166D01*
X61108787Y-104950260D01*
X60145733Y-104950260D01*
X59693746Y-105040166D01*
X59310569Y-105296196D01*
X59054539Y-105679373D01*
X58964633Y-106131360D01*
X59054539Y-106583347D01*
X59309496Y-106964918D01*
X59004217Y-106760937D01*
X58188696Y-106598720D01*
X54536504Y-106598720D01*
X53720983Y-106760937D01*
X53029617Y-107222893D01*
X52567661Y-107914259D01*
X52405444Y-108729780D01*
X40842000Y-108729780D01*
X40842000Y-103632000D01*
X58964633Y-103632000D01*
X59054539Y-104083987D01*
X59310569Y-104467164D01*
X59693746Y-104723194D01*
X60145733Y-104813100D01*
X61108787Y-104813100D01*
X61560774Y-104723194D01*
X61943951Y-104467164D01*
X62199981Y-104083987D01*
X62289887Y-103632000D01*
X62199981Y-103180013D01*
X61943951Y-102796836D01*
X61560774Y-102540806D01*
X61108787Y-102450900D01*
X60145733Y-102450900D01*
X59693746Y-102540806D01*
X59310569Y-102796836D01*
X59054539Y-103180013D01*
X58964633Y-103632000D01*
X40842000Y-103632000D01*
X40842000Y-98531680D01*
X52405444Y-98531680D01*
X52567661Y-99347201D01*
X53029617Y-100038567D01*
X53720983Y-100500523D01*
X54536504Y-100662740D01*
X58188696Y-100662740D01*
X59004217Y-100500523D01*
X59695583Y-100038567D01*
X60157539Y-99347201D01*
X60319756Y-98531680D01*
X60157539Y-97716159D01*
X59888658Y-97313750D01*
X81407000Y-97313750D01*
X81407000Y-98170309D01*
X81503673Y-98403698D01*
X81682301Y-98582327D01*
X81915690Y-98679000D01*
X82772250Y-98679000D01*
X82931000Y-98520250D01*
X82931000Y-97155000D01*
X81565750Y-97155000D01*
X81407000Y-97313750D01*
X59888658Y-97313750D01*
X59695583Y-97024793D01*
X59004217Y-96562837D01*
X58188696Y-96400620D01*
X54536504Y-96400620D01*
X53720983Y-96562837D01*
X53029617Y-97024793D01*
X52567661Y-97716159D01*
X52405444Y-98531680D01*
X40842000Y-98531680D01*
X40842000Y-95885691D01*
X81407000Y-95885691D01*
X81407000Y-96742250D01*
X81565750Y-96901000D01*
X82931000Y-96901000D01*
X82931000Y-95535750D01*
X83185000Y-95535750D01*
X83185000Y-96901000D01*
X83205000Y-96901000D01*
X83205000Y-97155000D01*
X83185000Y-97155000D01*
X83185000Y-98520250D01*
X83343750Y-98679000D01*
X84200310Y-98679000D01*
X84433699Y-98582327D01*
X84612327Y-98403698D01*
X84709000Y-98170309D01*
X84709000Y-98109232D01*
X85063391Y-98346029D01*
X85598000Y-98452369D01*
X86132609Y-98346029D01*
X86585828Y-98043197D01*
X86888660Y-97589978D01*
X86995000Y-97055369D01*
X86995000Y-97000631D01*
X86888660Y-96466022D01*
X86585828Y-96012803D01*
X86132609Y-95709971D01*
X85598000Y-95603631D01*
X85063391Y-95709971D01*
X84709000Y-95946768D01*
X84709000Y-95885691D01*
X84612327Y-95652302D01*
X84433699Y-95473673D01*
X84200310Y-95377000D01*
X83343750Y-95377000D01*
X83185000Y-95535750D01*
X82931000Y-95535750D01*
X82772250Y-95377000D01*
X81915690Y-95377000D01*
X81682301Y-95473673D01*
X81503673Y-95652302D01*
X81407000Y-95885691D01*
X40842000Y-95885691D01*
X40842000Y-93420000D01*
X127052000Y-93420000D01*
X127052000Y-169216000D01*
X127052000Y-169216000D01*
G37*
X127052000Y-169216000D02*
X40842000Y-169216000D01*
X40842000Y-159235304D01*
X79382620Y-159235304D01*
X79382620Y-162887496D01*
X79544837Y-163703017D01*
X80006793Y-164394383D01*
X80698159Y-164856339D01*
X81513680Y-165018556D01*
X82329201Y-164856339D01*
X83020567Y-164394383D01*
X83482523Y-163703017D01*
X83644740Y-162887496D01*
X83644740Y-159235304D01*
X83482523Y-158419783D01*
X83020567Y-157728417D01*
X82329201Y-157266461D01*
X81513680Y-157104244D01*
X80698159Y-157266461D01*
X80006793Y-157728417D01*
X79544837Y-158419783D01*
X79382620Y-159235304D01*
X40842000Y-159235304D01*
X40842000Y-156315213D01*
X85432900Y-156315213D01*
X85432900Y-157278267D01*
X85522806Y-157730254D01*
X85778836Y-158113431D01*
X86162013Y-158369461D01*
X86614000Y-158459367D01*
X87065987Y-158369461D01*
X87449164Y-158113431D01*
X87705194Y-157730254D01*
X87795100Y-157278267D01*
X87795100Y-156315213D01*
X87932260Y-156315213D01*
X87932260Y-157278267D01*
X88022166Y-157730254D01*
X88278196Y-158113431D01*
X88661373Y-158369461D01*
X89113360Y-158459367D01*
X89565347Y-158369461D01*
X89946918Y-158114504D01*
X89742937Y-158419783D01*
X89580720Y-159235304D01*
X89580720Y-162887496D01*
X89742937Y-163703017D01*
X90204893Y-164394383D01*
X90896259Y-164856339D01*
X91711780Y-165018556D01*
X92527301Y-164856339D01*
X93218667Y-164394383D01*
X93680623Y-163703017D01*
X93842840Y-162887496D01*
X93842840Y-159235304D01*
X104528620Y-159235304D01*
X104528620Y-162887496D01*
X104690837Y-163703017D01*
X105152793Y-164394383D01*
X105844159Y-164856339D01*
X106659680Y-165018556D01*
X107475201Y-164856339D01*
X108166567Y-164394383D01*
X108628523Y-163703017D01*
X108790740Y-162887496D01*
X108790740Y-159235304D01*
X108628523Y-158419783D01*
X108166567Y-157728417D01*
X107475201Y-157266461D01*
X106659680Y-157104244D01*
X105844159Y-157266461D01*
X105152793Y-157728417D01*
X104690837Y-158419783D01*
X104528620Y-159235304D01*
X93842840Y-159235304D01*
X93680623Y-158419783D01*
X93218667Y-157728417D01*
X92527301Y-157266461D01*
X91711780Y-157104244D01*
X90896259Y-157266461D01*
X90204923Y-157728397D01*
X90294460Y-157278267D01*
X90294460Y-156315213D01*
X110578900Y-156315213D01*
X110578900Y-157278267D01*
X110668806Y-157730254D01*
X110924836Y-158113431D01*
X111308013Y-158369461D01*
X111760000Y-158459367D01*
X112211987Y-158369461D01*
X112595164Y-158113431D01*
X112851194Y-157730254D01*
X112941100Y-157278267D01*
X112941100Y-156315213D01*
X113078260Y-156315213D01*
X113078260Y-157278267D01*
X113168166Y-157730254D01*
X113424196Y-158113431D01*
X113807373Y-158369461D01*
X114259360Y-158459367D01*
X114711347Y-158369461D01*
X115092918Y-158114504D01*
X114888937Y-158419783D01*
X114726720Y-159235304D01*
X114726720Y-162887496D01*
X114888937Y-163703017D01*
X115350893Y-164394383D01*
X116042259Y-164856339D01*
X116857780Y-165018556D01*
X117673301Y-164856339D01*
X118364667Y-164394383D01*
X118826623Y-163703017D01*
X118988840Y-162887496D01*
X118988840Y-159235304D01*
X118826623Y-158419783D01*
X118364667Y-157728417D01*
X117673301Y-157266461D01*
X116857780Y-157104244D01*
X116042259Y-157266461D01*
X115350923Y-157728397D01*
X115440460Y-157278267D01*
X115440460Y-156315213D01*
X115350554Y-155863226D01*
X115094524Y-155480049D01*
X114711347Y-155224019D01*
X114259360Y-155134113D01*
X113807373Y-155224019D01*
X113424196Y-155480049D01*
X113168166Y-155863226D01*
X113078260Y-156315213D01*
X112941100Y-156315213D01*
X112851194Y-155863226D01*
X112595164Y-155480049D01*
X112211987Y-155224019D01*
X111760000Y-155134113D01*
X111308013Y-155224019D01*
X110924836Y-155480049D01*
X110668806Y-155863226D01*
X110578900Y-156315213D01*
X90294460Y-156315213D01*
X90204554Y-155863226D01*
X89948524Y-155480049D01*
X89565347Y-155224019D01*
X89113360Y-155134113D01*
X88661373Y-155224019D01*
X88278196Y-155480049D01*
X88022166Y-155863226D01*
X87932260Y-156315213D01*
X87795100Y-156315213D01*
X87705194Y-155863226D01*
X87449164Y-155480049D01*
X87065987Y-155224019D01*
X86614000Y-155134113D01*
X86162013Y-155224019D01*
X85778836Y-155480049D01*
X85522806Y-155863226D01*
X85432900Y-156315213D01*
X40842000Y-156315213D01*
X40842000Y-147086320D01*
X107574244Y-147086320D01*
X107736461Y-147901841D01*
X108198417Y-148593207D01*
X108889783Y-149055163D01*
X109705304Y-149217380D01*
X113357496Y-149217380D01*
X114173017Y-149055163D01*
X114864383Y-148593207D01*
X115326339Y-147901841D01*
X115488556Y-147086320D01*
X115326339Y-146270799D01*
X114864383Y-145579433D01*
X114173017Y-145117477D01*
X113357496Y-144955260D01*
X109705304Y-144955260D01*
X108889783Y-145117477D01*
X108198417Y-145579433D01*
X107736461Y-146270799D01*
X107574244Y-147086320D01*
X40842000Y-147086320D01*
X40842000Y-140225780D01*
X52405444Y-140225780D01*
X52567661Y-141041301D01*
X53029617Y-141732667D01*
X53720983Y-142194623D01*
X54536504Y-142356840D01*
X58188696Y-142356840D01*
X59004217Y-142194623D01*
X59695583Y-141732667D01*
X60157539Y-141041301D01*
X60319756Y-140225780D01*
X60157539Y-139410259D01*
X59695603Y-138718923D01*
X60145733Y-138808460D01*
X61108787Y-138808460D01*
X61560774Y-138718554D01*
X61943951Y-138462524D01*
X62199981Y-138079347D01*
X62289887Y-137627360D01*
X62199981Y-137175373D01*
X61943951Y-136792196D01*
X61560774Y-136536166D01*
X61108787Y-136446260D01*
X60145733Y-136446260D01*
X59693746Y-136536166D01*
X59310569Y-136792196D01*
X59054539Y-137175373D01*
X58964633Y-137627360D01*
X59054539Y-138079347D01*
X59309496Y-138460918D01*
X59004217Y-138256937D01*
X58188696Y-138094720D01*
X54536504Y-138094720D01*
X53720983Y-138256937D01*
X53029617Y-138718893D01*
X52567661Y-139410259D01*
X52405444Y-140225780D01*
X40842000Y-140225780D01*
X40842000Y-135128000D01*
X58964633Y-135128000D01*
X59054539Y-135579987D01*
X59310569Y-135963164D01*
X59693746Y-136219194D01*
X60145733Y-136309100D01*
X61108787Y-136309100D01*
X61560774Y-136219194D01*
X61943951Y-135963164D01*
X62199981Y-135579987D01*
X62289887Y-135128000D01*
X62199981Y-134676013D01*
X62082952Y-134500865D01*
X74756882Y-134500865D01*
X74860339Y-134751252D01*
X74932000Y-134823038D01*
X74932000Y-137210877D01*
X74861013Y-137281741D01*
X74757118Y-137531946D01*
X74756882Y-137802865D01*
X74860339Y-138053252D01*
X75051741Y-138244987D01*
X75301946Y-138348882D01*
X75572865Y-138349118D01*
X75823252Y-138245661D01*
X76014987Y-138054259D01*
X76118882Y-137804054D01*
X76119118Y-137533135D01*
X76015661Y-137282748D01*
X75944000Y-137210962D01*
X75944000Y-137029076D01*
X76063946Y-137078882D01*
X76334865Y-137079118D01*
X76585252Y-136975661D01*
X76657038Y-136904000D01*
X77774877Y-136904000D01*
X77845741Y-136974987D01*
X78095946Y-137078882D01*
X78366865Y-137079118D01*
X78617252Y-136975661D01*
X78808987Y-136784259D01*
X78912882Y-136534054D01*
X78913118Y-136263135D01*
X78809661Y-136012748D01*
X78618259Y-135821013D01*
X78368054Y-135717118D01*
X78097135Y-135716882D01*
X77846748Y-135820339D01*
X77774962Y-135892000D01*
X76657123Y-135892000D01*
X76586259Y-135821013D01*
X76446515Y-135762986D01*
X76585252Y-135705661D01*
X76657038Y-135634000D01*
X78536877Y-135634000D01*
X78607741Y-135704987D01*
X78857946Y-135808882D01*
X79128865Y-135809118D01*
X79379252Y-135705661D01*
X79570987Y-135514259D01*
X79674882Y-135264054D01*
X79675118Y-134993135D01*
X79571661Y-134742748D01*
X79380259Y-134551013D01*
X79130054Y-134447118D01*
X78859135Y-134446882D01*
X78608748Y-134550339D01*
X78536962Y-134622000D01*
X76657123Y-134622000D01*
X76586259Y-134551013D01*
X76336054Y-134447118D01*
X76118930Y-134446929D01*
X76119118Y-134231135D01*
X76015661Y-133980748D01*
X75824259Y-133789013D01*
X75574054Y-133685118D01*
X75303135Y-133684882D01*
X75052748Y-133788339D01*
X74861013Y-133979741D01*
X74757118Y-134229946D01*
X74756882Y-134500865D01*
X62082952Y-134500865D01*
X61943951Y-134292836D01*
X61560774Y-134036806D01*
X61108787Y-133946900D01*
X60145733Y-133946900D01*
X59693746Y-134036806D01*
X59310569Y-134292836D01*
X59054539Y-134676013D01*
X58964633Y-135128000D01*
X40842000Y-135128000D01*
X40842000Y-130027680D01*
X52405444Y-130027680D01*
X52567661Y-130843201D01*
X53029617Y-131534567D01*
X53720983Y-131996523D01*
X54536504Y-132158740D01*
X58188696Y-132158740D01*
X59004217Y-131996523D01*
X59695583Y-131534567D01*
X60157539Y-130843201D01*
X60319756Y-130027680D01*
X60157539Y-129212159D01*
X59695583Y-128520793D01*
X59004217Y-128058837D01*
X58188696Y-127896620D01*
X54536504Y-127896620D01*
X53720983Y-128058837D01*
X53029617Y-128520793D01*
X52567661Y-129212159D01*
X52405444Y-130027680D01*
X40842000Y-130027680D01*
X40842000Y-115450865D01*
X81106882Y-115450865D01*
X81210339Y-115701252D01*
X81282000Y-115773038D01*
X81282000Y-137210877D01*
X81211013Y-137281741D01*
X81107118Y-137531946D01*
X81106882Y-137802865D01*
X81210339Y-138053252D01*
X81282000Y-138125038D01*
X81282000Y-139750877D01*
X81211013Y-139821741D01*
X81107118Y-140071946D01*
X81106882Y-140342865D01*
X81210339Y-140593252D01*
X81401741Y-140784987D01*
X81651946Y-140888882D01*
X81922865Y-140889118D01*
X82173252Y-140785661D01*
X82364987Y-140594259D01*
X82468882Y-140344054D01*
X82469118Y-140073135D01*
X82365661Y-139822748D01*
X82294000Y-139750962D01*
X82294000Y-138125123D01*
X82364987Y-138054259D01*
X82468882Y-137804054D01*
X82469118Y-137533135D01*
X82365661Y-137282748D01*
X82294000Y-137210962D01*
X82294000Y-115773123D01*
X82364987Y-115702259D01*
X82468882Y-115452054D01*
X82469118Y-115181135D01*
X82365661Y-114930748D01*
X82174259Y-114739013D01*
X81924054Y-114635118D01*
X81653135Y-114634882D01*
X81402748Y-114738339D01*
X81211013Y-114929741D01*
X81107118Y-115179946D01*
X81106882Y-115450865D01*
X40842000Y-115450865D01*
X40842000Y-112377465D01*
X95610282Y-112377465D01*
X95713739Y-112627852D01*
X95785400Y-112699638D01*
X95785400Y-137439400D01*
X95823917Y-137633038D01*
X95933604Y-137797196D01*
X100480204Y-142343796D01*
X100644362Y-142453483D01*
X100838000Y-142492000D01*
X105730109Y-142492000D01*
X105950049Y-142821164D01*
X106333226Y-143077194D01*
X106785213Y-143167100D01*
X107748267Y-143167100D01*
X108200254Y-143077194D01*
X108583431Y-142821164D01*
X108839461Y-142437987D01*
X108929367Y-141986000D01*
X108839461Y-141534013D01*
X108583431Y-141150836D01*
X108200254Y-140894806D01*
X107748267Y-140804900D01*
X106785213Y-140804900D01*
X106333226Y-140894806D01*
X105950049Y-141150836D01*
X105730109Y-141480000D01*
X101047592Y-141480000D01*
X99054232Y-139486640D01*
X105604113Y-139486640D01*
X105694019Y-139938627D01*
X105950049Y-140321804D01*
X106333226Y-140577834D01*
X106785213Y-140667740D01*
X107748267Y-140667740D01*
X108200254Y-140577834D01*
X108583431Y-140321804D01*
X108839461Y-139938627D01*
X108929367Y-139486640D01*
X108839461Y-139034653D01*
X108584504Y-138653082D01*
X108889783Y-138857063D01*
X109705304Y-139019280D01*
X113357496Y-139019280D01*
X114173017Y-138857063D01*
X114864383Y-138395107D01*
X115326339Y-137703741D01*
X115488556Y-136888220D01*
X115326339Y-136072699D01*
X114864383Y-135381333D01*
X114173017Y-134919377D01*
X113357496Y-134757160D01*
X109705304Y-134757160D01*
X108889783Y-134919377D01*
X108198417Y-135381333D01*
X107736461Y-136072699D01*
X107574244Y-136888220D01*
X107736461Y-137703741D01*
X108198397Y-138395077D01*
X107748267Y-138305540D01*
X106785213Y-138305540D01*
X106333226Y-138395446D01*
X105950049Y-138651476D01*
X105694019Y-139034653D01*
X105604113Y-139486640D01*
X99054232Y-139486640D01*
X96797400Y-137229808D01*
X96797400Y-128036320D01*
X107574244Y-128036320D01*
X107736461Y-128851841D01*
X108198417Y-129543207D01*
X108889783Y-130005163D01*
X109705304Y-130167380D01*
X113357496Y-130167380D01*
X114173017Y-130005163D01*
X114864383Y-129543207D01*
X115326339Y-128851841D01*
X115488556Y-128036320D01*
X115326339Y-127220799D01*
X114864383Y-126529433D01*
X114173017Y-126067477D01*
X113357496Y-125905260D01*
X109705304Y-125905260D01*
X108889783Y-126067477D01*
X108198417Y-126529433D01*
X107736461Y-127220799D01*
X107574244Y-128036320D01*
X96797400Y-128036320D01*
X96797400Y-122936000D01*
X105604113Y-122936000D01*
X105694019Y-123387987D01*
X105950049Y-123771164D01*
X106333226Y-124027194D01*
X106785213Y-124117100D01*
X107748267Y-124117100D01*
X108200254Y-124027194D01*
X108583431Y-123771164D01*
X108839461Y-123387987D01*
X108929367Y-122936000D01*
X108839461Y-122484013D01*
X108583431Y-122100836D01*
X108200254Y-121844806D01*
X107748267Y-121754900D01*
X106785213Y-121754900D01*
X106333226Y-121844806D01*
X105950049Y-122100836D01*
X105694019Y-122484013D01*
X105604113Y-122936000D01*
X96797400Y-122936000D01*
X96797400Y-120436640D01*
X105604113Y-120436640D01*
X105694019Y-120888627D01*
X105950049Y-121271804D01*
X106333226Y-121527834D01*
X106785213Y-121617740D01*
X107748267Y-121617740D01*
X108200254Y-121527834D01*
X108583431Y-121271804D01*
X108839461Y-120888627D01*
X108929367Y-120436640D01*
X108839461Y-119984653D01*
X108584504Y-119603082D01*
X108889783Y-119807063D01*
X109705304Y-119969280D01*
X113357496Y-119969280D01*
X114173017Y-119807063D01*
X114864383Y-119345107D01*
X115326339Y-118653741D01*
X115488556Y-117838220D01*
X115326339Y-117022699D01*
X114864383Y-116331333D01*
X114173017Y-115869377D01*
X113357496Y-115707160D01*
X109705304Y-115707160D01*
X108889783Y-115869377D01*
X108198417Y-116331333D01*
X107736461Y-117022699D01*
X107574244Y-117838220D01*
X107736461Y-118653741D01*
X108198397Y-119345077D01*
X107748267Y-119255540D01*
X106785213Y-119255540D01*
X106333226Y-119345446D01*
X105950049Y-119601476D01*
X105694019Y-119984653D01*
X105604113Y-120436640D01*
X96797400Y-120436640D01*
X96797400Y-112748600D01*
X104800400Y-112748600D01*
X104994038Y-112710083D01*
X105158196Y-112600396D01*
X106250396Y-111508196D01*
X106360083Y-111344038D01*
X106398600Y-111150400D01*
X106398600Y-102165192D01*
X107135972Y-101427820D01*
X114758847Y-101427820D01*
X114833383Y-101802539D01*
X115159616Y-102290780D01*
X115587420Y-102576630D01*
X115159616Y-102862480D01*
X114833383Y-103350721D01*
X114718826Y-103926640D01*
X114833383Y-104502559D01*
X115159616Y-104990800D01*
X115647857Y-105317033D01*
X115708415Y-105329079D01*
X115613833Y-105368159D01*
X115295597Y-105685840D01*
X115123157Y-106101123D01*
X115122764Y-106550784D01*
X115294479Y-106966367D01*
X115612160Y-107284603D01*
X115704653Y-107323010D01*
X115647857Y-107334307D01*
X115159616Y-107660540D01*
X114833383Y-108148781D01*
X114718826Y-108724700D01*
X114833383Y-109300619D01*
X115159616Y-109788860D01*
X115587420Y-110074710D01*
X115159616Y-110360560D01*
X114833383Y-110848801D01*
X114718826Y-111424720D01*
X114833383Y-112000639D01*
X115159616Y-112488880D01*
X115647857Y-112815113D01*
X116223776Y-112929670D01*
X116282744Y-112929670D01*
X116858663Y-112815113D01*
X117346904Y-112488880D01*
X117673137Y-112000639D01*
X117762873Y-111549504D01*
X120124024Y-111549504D01*
X120295739Y-111965087D01*
X120613420Y-112283323D01*
X121028703Y-112455763D01*
X121478364Y-112456156D01*
X121893947Y-112284441D01*
X122212183Y-111966760D01*
X122384623Y-111551477D01*
X122385016Y-111101816D01*
X122213301Y-110686233D01*
X121895620Y-110367997D01*
X121480337Y-110195557D01*
X121030676Y-110195164D01*
X120615093Y-110366879D01*
X120296857Y-110684560D01*
X120124417Y-111099843D01*
X120124024Y-111549504D01*
X117762873Y-111549504D01*
X117787694Y-111424720D01*
X117673137Y-110848801D01*
X117346904Y-110360560D01*
X116919100Y-110074710D01*
X117346904Y-109788860D01*
X117673137Y-109300619D01*
X117787694Y-108724700D01*
X117673137Y-108148781D01*
X117346904Y-107660540D01*
X116858663Y-107334307D01*
X116802255Y-107323087D01*
X116892687Y-107285721D01*
X117210923Y-106968040D01*
X117383363Y-106552757D01*
X117383560Y-106326940D01*
X119571175Y-106326940D01*
X119696850Y-106958750D01*
X120054742Y-107494373D01*
X120590365Y-107852265D01*
X121222175Y-107977940D01*
X121286865Y-107977940D01*
X121918675Y-107852265D01*
X122454298Y-107494373D01*
X122812190Y-106958750D01*
X122937865Y-106326940D01*
X122812190Y-105695130D01*
X122454298Y-105159507D01*
X121918675Y-104801615D01*
X121286865Y-104675940D01*
X121222175Y-104675940D01*
X120590365Y-104801615D01*
X120054742Y-105159507D01*
X119696850Y-105695130D01*
X119571175Y-106326940D01*
X117383560Y-106326940D01*
X117383756Y-106103096D01*
X117212041Y-105687513D01*
X116894360Y-105369277D01*
X116797731Y-105329153D01*
X116858663Y-105317033D01*
X117346904Y-104990800D01*
X117673137Y-104502559D01*
X117787694Y-103926640D01*
X117673137Y-103350721D01*
X117346904Y-102862480D01*
X116919100Y-102576630D01*
X117346904Y-102290780D01*
X117673137Y-101802539D01*
X117722959Y-101552064D01*
X120124024Y-101552064D01*
X120295739Y-101967647D01*
X120613420Y-102285883D01*
X121028703Y-102458323D01*
X121478364Y-102458716D01*
X121893947Y-102287001D01*
X122212183Y-101969320D01*
X122384623Y-101554037D01*
X122385016Y-101104376D01*
X122213301Y-100688793D01*
X121895620Y-100370557D01*
X121480337Y-100198117D01*
X121030676Y-100197724D01*
X120615093Y-100369439D01*
X120296857Y-100687120D01*
X120124417Y-101102403D01*
X120124024Y-101552064D01*
X117722959Y-101552064D01*
X117787694Y-101226620D01*
X117673137Y-100650701D01*
X117346904Y-100162460D01*
X116858663Y-99836227D01*
X116282744Y-99721670D01*
X116223776Y-99721670D01*
X115647857Y-99836227D01*
X115159616Y-100162460D01*
X114990326Y-100415820D01*
X106926380Y-100415820D01*
X106732742Y-100454337D01*
X106663620Y-100500523D01*
X106568584Y-100564024D01*
X105534804Y-101597804D01*
X105425117Y-101761962D01*
X105386600Y-101955600D01*
X105386600Y-110940808D01*
X104590808Y-111736600D01*
X96748523Y-111736600D01*
X96677659Y-111665613D01*
X96427454Y-111561718D01*
X96156535Y-111561482D01*
X95906148Y-111664939D01*
X95714413Y-111856341D01*
X95610518Y-112106546D01*
X95610282Y-112377465D01*
X40842000Y-112377465D01*
X40842000Y-108729780D01*
X52405444Y-108729780D01*
X52567661Y-109545301D01*
X53029617Y-110236667D01*
X53720983Y-110698623D01*
X54536504Y-110860840D01*
X58188696Y-110860840D01*
X59004217Y-110698623D01*
X59684810Y-110243865D01*
X88015682Y-110243865D01*
X88119139Y-110494252D01*
X88310541Y-110685987D01*
X88560746Y-110789882D01*
X88831665Y-110790118D01*
X89082052Y-110686661D01*
X89273787Y-110495259D01*
X89377682Y-110245054D01*
X89377918Y-109974135D01*
X89274461Y-109723748D01*
X89228200Y-109677407D01*
X89228200Y-107797523D01*
X89299187Y-107726659D01*
X89403082Y-107476454D01*
X89403318Y-107205535D01*
X89299861Y-106955148D01*
X89108459Y-106763413D01*
X88858254Y-106659518D01*
X88587335Y-106659282D01*
X88336948Y-106762739D01*
X88145213Y-106954141D01*
X88041318Y-107204346D01*
X88041082Y-107475265D01*
X88144539Y-107725652D01*
X88216200Y-107797438D01*
X88216200Y-109626521D01*
X88119813Y-109722741D01*
X88015918Y-109972946D01*
X88015682Y-110243865D01*
X59684810Y-110243865D01*
X59695583Y-110236667D01*
X60157539Y-109545301D01*
X60319756Y-108729780D01*
X60157539Y-107914259D01*
X59695603Y-107222923D01*
X60145733Y-107312460D01*
X61108787Y-107312460D01*
X61560774Y-107222554D01*
X61943951Y-106966524D01*
X62199981Y-106583347D01*
X62289887Y-106131360D01*
X62199981Y-105679373D01*
X61943951Y-105296196D01*
X61560774Y-105040166D01*
X61108787Y-104950260D01*
X60145733Y-104950260D01*
X59693746Y-105040166D01*
X59310569Y-105296196D01*
X59054539Y-105679373D01*
X58964633Y-106131360D01*
X59054539Y-106583347D01*
X59309496Y-106964918D01*
X59004217Y-106760937D01*
X58188696Y-106598720D01*
X54536504Y-106598720D01*
X53720983Y-106760937D01*
X53029617Y-107222893D01*
X52567661Y-107914259D01*
X52405444Y-108729780D01*
X40842000Y-108729780D01*
X40842000Y-103632000D01*
X58964633Y-103632000D01*
X59054539Y-104083987D01*
X59310569Y-104467164D01*
X59693746Y-104723194D01*
X60145733Y-104813100D01*
X61108787Y-104813100D01*
X61560774Y-104723194D01*
X61943951Y-104467164D01*
X62199981Y-104083987D01*
X62289887Y-103632000D01*
X62199981Y-103180013D01*
X61943951Y-102796836D01*
X61560774Y-102540806D01*
X61108787Y-102450900D01*
X60145733Y-102450900D01*
X59693746Y-102540806D01*
X59310569Y-102796836D01*
X59054539Y-103180013D01*
X58964633Y-103632000D01*
X40842000Y-103632000D01*
X40842000Y-98531680D01*
X52405444Y-98531680D01*
X52567661Y-99347201D01*
X53029617Y-100038567D01*
X53720983Y-100500523D01*
X54536504Y-100662740D01*
X58188696Y-100662740D01*
X59004217Y-100500523D01*
X59695583Y-100038567D01*
X60157539Y-99347201D01*
X60319756Y-98531680D01*
X60157539Y-97716159D01*
X59888658Y-97313750D01*
X81407000Y-97313750D01*
X81407000Y-98170309D01*
X81503673Y-98403698D01*
X81682301Y-98582327D01*
X81915690Y-98679000D01*
X82772250Y-98679000D01*
X82931000Y-98520250D01*
X82931000Y-97155000D01*
X81565750Y-97155000D01*
X81407000Y-97313750D01*
X59888658Y-97313750D01*
X59695583Y-97024793D01*
X59004217Y-96562837D01*
X58188696Y-96400620D01*
X54536504Y-96400620D01*
X53720983Y-96562837D01*
X53029617Y-97024793D01*
X52567661Y-97716159D01*
X52405444Y-98531680D01*
X40842000Y-98531680D01*
X40842000Y-95885691D01*
X81407000Y-95885691D01*
X81407000Y-96742250D01*
X81565750Y-96901000D01*
X82931000Y-96901000D01*
X82931000Y-95535750D01*
X83185000Y-95535750D01*
X83185000Y-96901000D01*
X83205000Y-96901000D01*
X83205000Y-97155000D01*
X83185000Y-97155000D01*
X83185000Y-98520250D01*
X83343750Y-98679000D01*
X84200310Y-98679000D01*
X84433699Y-98582327D01*
X84612327Y-98403698D01*
X84709000Y-98170309D01*
X84709000Y-98109232D01*
X85063391Y-98346029D01*
X85598000Y-98452369D01*
X86132609Y-98346029D01*
X86585828Y-98043197D01*
X86888660Y-97589978D01*
X86995000Y-97055369D01*
X86995000Y-97000631D01*
X86888660Y-96466022D01*
X86585828Y-96012803D01*
X86132609Y-95709971D01*
X85598000Y-95603631D01*
X85063391Y-95709971D01*
X84709000Y-95946768D01*
X84709000Y-95885691D01*
X84612327Y-95652302D01*
X84433699Y-95473673D01*
X84200310Y-95377000D01*
X83343750Y-95377000D01*
X83185000Y-95535750D01*
X82931000Y-95535750D01*
X82772250Y-95377000D01*
X81915690Y-95377000D01*
X81682301Y-95473673D01*
X81503673Y-95652302D01*
X81407000Y-95885691D01*
X40842000Y-95885691D01*
X40842000Y-93420000D01*
X127052000Y-93420000D01*
X127052000Y-169216000D01*
M02*
